<?xml version="1.0" standalone="no"?>
<!DOCTYPE svg PUBLIC "-//W3C//DTD SVG 20010904//EN"
 "http://www.w3.org/TR/2001/REC-SVG-20010904/DTD/svg10.dtd">
<svg version="1.0" xmlns="http://www.w3.org/2000/svg"
 width="905.000000pt" height="636.000000pt" viewBox="0 0 905.000000 636.000000"
 preserveAspectRatio="xMidYMid meet">

<g transform="translate(0.000000,636.000000) scale(0.100000,-0.100000)"
fill="#000000" stroke="none">
<path d="M4205 5830 c-634 -70 -1200 -341 -1638 -784 -628 -634 -897 -1522
-727 -2399 11 -59 23 -113 26 -120 3 -9 -15 -19 -53 -31 -145 -46 -335 -167
-398 -255 -16 -23 -45 -62 -63 -87 -19 -25 -50 -80 -70 -122 -35 -72 -37 -83
-37 -173 0 -95 1 -97 38 -151 42 -61 44 -73 20 -87 -15 -8 -18 -4 -19 24 0 19
-14 55 -30 82 -25 41 -38 51 -84 67 -48 16 -62 17 -115 6 -83 -16 -118 -35
-186 -97 -61 -57 -164 -202 -185 -262 -16 -44 -18 -143 -3 -195 14 -51 102
-140 155 -156 101 -30 288 -18 374 25 14 6 65 31 113 54 48 22 107 58 130 79
23 20 52 43 64 49 21 12 22 10 29 -35 8 -58 44 -123 81 -148 21 -13 45 -18 93
-17 62 1 91 1 226 0 43 -1 70 4 95 19 l34 19 23 -22 c32 -29 68 -33 277 -29
195 4 244 13 274 52 l19 24 33 -30 c19 -16 41 -30 50 -30 10 0 41 -19 71 -43
71 -58 242 -171 354 -235 256 -146 590 -259 904 -307 147 -22 465 -30 630 -16
74 7 201 25 283 41 81 17 163 30 182 30 75 0 215 46 215 70 0 4 46 26 101 50
97 42 103 43 148 31 65 -16 103 -6 155 45 27 25 59 45 78 49 76 14 219 -28
281 -83 23 -20 106 -21 134 -1 12 8 38 39 59 69 30 46 37 64 37 106 0 63 -19
92 -106 167 l-63 52 30 28 c38 34 45 34 91 -3 64 -51 138 -73 233 -68 73 4 88
8 127 36 l45 32 46 -33 c41 -29 53 -32 118 -32 64 0 77 3 109 27 19 16 38 28
42 28 3 0 19 -10 36 -22 30 -23 31 -23 199 -21 19 0 73 0 120 0 126 -1 174 9
210 43 l31 29 36 -19 c89 -48 192 -48 298 -1 67 30 141 154 166 281 29 150
-57 273 -170 240 l-30 -8 -17 76 c-37 169 -125 275 -251 303 -45 10 -63 10
-114 -5 l-60 -16 -32 24 c-18 14 -51 28 -74 32 -34 5 -43 11 -48 33 -10 38
-69 106 -110 125 -23 11 -55 17 -91 15 l-55 -3 -3 66 c-2 47 -9 74 -24 94
l-21 29 24 96 c109 447 99 935 -30 1379 -170 585 -541 1099 -1045 1452 -329
230 -745 395 -1145 453 -129 19 -530 28 -650 15z m651 -169 c442 -75 796 -224
1139 -482 474 -356 808 -869 939 -1445 51 -226 61 -314 61 -564 0 -248 -9
-339 -51 -525 -43 -195 -36 -182 -98 -187 -68 -6 -95 -24 -142 -93 -33 -51
-38 -65 -48 -165 -7 -60 -14 -111 -17 -114 -3 -3 -20 -1 -39 4 -54 15 -105 2
-145 -38 -19 -19 -35 -39 -35 -44 0 -14 -19 -9 -39 11 -10 10 -26 23 -35 28
-14 8 -7 26 47 133 63 124 132 303 162 421 116 446 85 928 -85 1351 -262 650
-822 1135 -1500 1302 -177 43 -308 58 -515 58 -207 0 -339 -15 -514 -58 -719
-177 -1312 -721 -1541 -1414 -80 -241 -112 -438 -111 -695 0 -203 28 -414 77
-582 6 -21 3 -23 -28 -23 -19 0 -57 -7 -85 -15 -45 -13 -54 -13 -86 0 -20 8
-61 15 -91 15 l-55 0 -11 40 c-47 174 -75 459 -67 675 46 1195 907 2184 2084
2396 184 33 257 38 488 34 161 -3 252 -9 341 -24z m-101 -535 c339 -53 687
-206 955 -421 97 -78 246 -229 320 -325 173 -224 299 -480 364 -735 61 -244
77 -536 42 -777 -38 -265 -141 -548 -279 -766 -40 -64 -40 -64 -76 -56 -37 9
-82 10 -206 5 -38 -1 -142 0 -230 3 -144 4 -163 3 -206 -15 -26 -11 -59 -34
-75 -50 -31 -32 -44 -36 -44 -14 0 18 -21 20 -38 3 -8 -8 -68 -12 -199 -12
-179 -1 -190 0 -230 23 -46 25 -60 48 -18 29 17 -8 28 -8 37 0 15 12 350 10
387 -3 18 -6 23 -5 19 6 -8 25 -77 33 -174 21 -65 -8 -101 -8 -129 -1 -23 7
-68 8 -113 4 -61 -6 -74 -4 -69 7 114 270 141 346 141 400 1 50 -3 61 -29 88
-40 42 -91 54 -163 40 -99 -21 -238 -139 -449 -383 -51 -60 -100 -119 -109
-132 -13 -19 -25 -23 -92 -27 -86 -5 -130 -22 -191 -74 -45 -39 -105 -123
-122 -173 -9 -24 -15 -30 -28 -25 -83 36 -146 43 -197 24 -15 -6 -29 -9 -31
-6 -9 9 50 86 66 86 27 0 89 25 109 43 29 27 70 108 78 154 3 23 2 56 -4 72
-13 37 -26 33 140 35 l128 1 165 165 165 165 0 730 0 730 -172 172 -173 173
-465 0 -465 0 -172 -172 -173 -173 0 -300 0 -301 175 -173 174 -174 333 5
c183 3 339 3 346 1 9 -4 12 -43 12 -152 l0 -148 -34 -37 c-35 -36 -35 -36
-123 -37 -52 -1 -76 -4 -59 -8 55 -11 27 -26 -55 -29 -63 -2 -80 0 -77 10 3 7
20 16 39 19 27 5 21 7 -28 8 -58 1 -63 3 -92 38 -28 34 -31 44 -31 105 l0 68
-290 0 -290 0 0 -173 0 -173 165 -165 c91 -90 175 -167 187 -172 12 -4 61 -6
109 -5 49 1 90 0 93 -3 5 -5 -48 -96 -92 -157 -23 -32 -23 -32 -55 -16 -24 13
-50 15 -119 12 -98 -6 -118 4 -118 58 -1 43 -34 110 -66 131 -20 13 -48 18
-97 19 l-70 0 -28 55 c-47 91 -106 248 -138 369 -93 353 -89 709 13 1065 43
153 54 181 135 345 129 260 329 500 574 687 302 230 630 358 1047 407 72 8
368 -3 465 -18z m-582 -1024 l156 -158 1 -709 0 -710 -153 -152 -154 -153
-115 0 -116 0 11 35 10 35 81 0 81 0 139 139 138 139 1 669 0 669 -139 137
-139 137 -415 0 -415 0 -138 -139 -137 -138 0 -240 0 -241 141 -141 141 -141
374 0 c349 0 374 -1 374 -17 1 -10 1 -119 1 -243 l0 -225 -64 -62 -65 -63
-208 0 -209 0 -67 66 c-61 59 -68 71 -68 105 0 30 -4 39 -17 39 -11 0 -14 -3
-7 -10 5 -5 8 -30 6 -55 l-4 -46 -37 7 c-48 9 -71 21 -71 39 0 11 -13 15 -55
15 -40 0 -55 -4 -55 -14 0 -7 -11 -21 -25 -30 -28 -18 -33 -44 -10 -52 8 -3
17 -15 20 -25 4 -11 17 -31 31 -46 26 -29 24 -44 -6 -36 -26 7 -98 86 -105
116 -4 13 -5 46 -3 73 l3 49 130 5 130 6 -137 2 -138 2 0 -85 0 -85 139 -140
138 -139 122 -3 121 -3 -22 -32 -23 -33 -120 0 -120 0 -152 152 -153 153 0
142 0 143 245 0 245 0 0 -53 c0 -52 2 -55 54 -105 l54 -52 164 0 164 0 52 53
53 54 2 181 2 182 -364 0 -365 0 -153 152 -153 152 0 290 0 291 152 152 153
153 455 0 456 0 157 -158z m-192 37 c11 -11 19 -23 16 -25 -6 -7 -77 28 -77
38 0 16 40 8 61 -13z m148 -150 c25 -22 59 -52 74 -66 l28 -25 -3 -660 c-3
-640 -4 -660 -22 -674 -11 -8 -23 -14 -28 -14 -16 0 -8 28 13 41 20 14 20 14
2 106 -16 75 -17 109 -10 190 5 54 5 217 1 363 -4 146 -8 351 -8 455 l-1 191
-38 52 c-22 29 -42 52 -47 52 -4 0 -10 7 -14 15 -9 24 4 18 53 -26z m-291
-112 l63 -62 1 -149 0 -148 -68 -69 -68 -69 -206 0 -206 0 -66 68 -67 67 -2
149 -1 148 63 64 63 64 216 0 215 0 63 -63z m57 3 c3 -5 1 -10 -4 -10 -6 0
-11 5 -11 10 0 6 2 10 4 10 3 0 8 -4 11 -10z m-720 -690 c3 -5 2 -10 -4 -10
-5 0 -13 5 -16 10 -3 6 -2 10 4 10 5 0 13 -4 16 -10z m98 -27 c-13 -2 -35 -2
-50 0 -16 2 -5 4 22 4 28 0 40 -2 28 -4z m422 -533 c-3 -5 -10 -10 -16 -10 -5
0 -9 5 -9 10 0 6 7 10 16 10 8 0 12 -4 9 -10z m1151 -164 c4 -18 -18 -85 -74
-228 -43 -112 -93 -241 -110 -288 -17 -47 -46 -128 -65 -180 -19 -52 -46 -133
-61 -179 l-25 -84 24 23 c13 12 36 40 51 61 17 26 34 39 49 39 20 0 28 16 70
143 26 78 52 148 59 155 7 7 47 13 106 15 l95 2 3 -27 c2 -15 -10 -53 -28 -88
-43 -85 -100 -260 -100 -306 l0 -39 23 35 c27 41 95 198 140 324 30 83 34 90
65 98 18 5 63 8 100 6 63 -3 67 -4 70 -28 1 -14 -19 -80 -47 -147 l-49 -121
33 5 c26 4 36 1 49 -18 13 -19 16 -20 16 -6 0 43 108 212 180 282 l41 40 157
0 157 0 3 -37 c3 -30 -45 -233 -94 -407 -10 -35 7 -21 59 47 43 55 45 61 71
212 15 85 32 160 39 167 7 7 50 13 101 15 116 4 119 0 82 -115 -49 -153 -64
-287 -37 -335 14 -25 99 270 116 402 2 16 8 32 12 37 4 4 50 11 100 14 82 7
93 6 99 -10 7 -17 0 -53 -42 -231 -26 -111 -29 -138 -10 -84 11 30 17 35 44
35 29 0 36 8 93 100 65 107 89 157 89 186 0 27 28 49 64 49 45 0 64 -35 49
-90 -5 -22 -7 -41 -4 -42 3 -2 31 -33 61 -70 30 -37 57 -67 60 -67 3 -1 21
140 40 312 l35 312 95 0 95 0 -1 -97 0 -98 36 0 c20 0 41 -5 47 -11 8 -8 17
-8 31 0 26 14 77 14 103 1 34 -19 69 -86 69 -133 0 -24 -5 -48 -12 -55 -15
-15 -122 -16 -149 -1 -11 5 -27 28 -35 50 -15 37 -18 39 -59 39 l-44 0 -5 -42
c-3 -24 -10 -110 -16 -193 -6 -82 -13 -168 -16 -191 -5 -44 13 -144 26 -144 5
0 19 27 31 61 15 42 30 64 46 72 24 11 24 12 22 142 -1 73 1 136 4 142 9 14
175 17 192 3 10 -8 18 -1 35 35 21 44 23 45 68 45 42 0 50 -4 93 -49 34 -35
49 -45 53 -35 11 28 70 54 122 54 60 0 102 -24 150 -87 37 -49 59 -132 75
-285 5 -57 14 -107 19 -112 17 -17 55 11 81 58 19 36 29 46 49 46 15 0 31 -5
38 -12 24 -24 7 -162 -27 -226 -22 -42 -70 -62 -145 -62 -77 0 -124 20 -165
72 -36 44 -48 92 -56 208 -7 108 -27 205 -50 250 -13 24 -13 23 -31 -35 -18
-64 -17 -92 20 -364 9 -65 11 -111 6 -122 -8 -13 -31 -18 -114 -24 -58 -4
-110 -4 -115 0 -6 3 -11 20 -11 37 l0 30 -40 -36 c-34 -31 -47 -36 -89 -36
-58 0 -89 21 -128 87 l-27 46 -19 -44 c-30 -73 -62 -99 -119 -99 -45 0 -53 4
-98 50 -30 29 -50 58 -50 71 0 18 -6 14 -29 -23 -44 -70 -83 -92 -167 -96 -56
-3 -81 0 -122 18 -59 26 -120 87 -129 131 -4 23 -8 27 -19 18 -8 -6 -14 -17
-14 -23 0 -6 -21 -35 -46 -64 l-46 -52 -63 0 c-47 0 -69 5 -86 19 -23 18 -24
18 -51 -2 -33 -24 -112 -30 -149 -11 -36 18 -75 66 -89 109 l-12 36 -42 -39
c-24 -22 -56 -48 -72 -58 -35 -22 -44 -33 -44 -56 0 -14 9 -18 38 -18 57 -1
181 -26 242 -49 74 -28 207 -106 275 -160 43 -35 55 -50 55 -72 0 -16 5 -29
10 -29 6 0 10 -5 10 -11 0 -6 -6 -7 -12 -2 -7 4 -25 6 -39 5 -14 -2 -53 6 -85
17 -81 27 -170 36 -223 21 -27 -7 -61 -28 -91 -56 -26 -24 -57 -44 -69 -44
-12 0 -47 24 -80 54 -33 30 -73 61 -89 70 l-29 15 -24 -52 c-37 -79 -105 -165
-156 -197 -40 -26 -57 -30 -115 -30 -73 0 -109 13 -145 52 -30 31 -53 90 -53
132 l0 35 -72 -30 c-194 -80 -360 -90 -481 -31 -68 34 -157 114 -208 188 -45
66 -68 133 -76 219 l-6 74 -51 35 c-29 20 -65 49 -80 65 l-29 30 -81 -81
c-136 -135 -230 -188 -337 -188 -77 0 -128 27 -159 83 -19 34 -23 55 -23 129
l1 88 -29 -43 c-40 -60 -182 -211 -223 -236 -47 -30 -110 -28 -141 3 -21 21
-29 23 -57 15 -18 -5 -64 -9 -102 -9 -92 0 -116 20 -116 94 0 59 17 100 87
212 28 44 65 109 83 145 l32 64 -42 -40 c-56 -53 -100 -119 -204 -307 -48 -86
-93 -161 -100 -168 -8 -6 -62 -14 -121 -17 -102 -6 -106 -5 -112 15 -5 20 -5
20 -36 1 -21 -12 -50 -19 -84 -19 -62 0 -83 21 -83 83 l0 39 -41 -37 c-80 -72
-180 -96 -224 -55 -21 20 -21 20 -60 0 -23 -12 -59 -20 -86 -20 -62 0 -89 31
-89 100 0 96 47 177 188 322 117 121 230 213 297 244 45 21 63 23 185 21 l135
-2 3 -29 c3 -22 -10 -49 -52 -110 -30 -45 -66 -92 -80 -105 -28 -27 -33 -41
-13 -41 7 0 46 51 87 113 l76 112 83 3 c46 2 88 -2 95 -7 9 -8 21 -2 41 19
l29 30 -61 0 c-80 0 -91 12 -75 87 14 67 24 81 81 106 53 23 108 17 120 -15
12 -34 -6 -118 -31 -146 -23 -25 -23 -25 -1 -13 29 15 88 14 101 -2 6 -6 13
-24 17 -40 4 -15 9 -27 10 -27 2 0 26 11 53 25 64 32 138 34 170 5 21 -20 26
-47 22 -115 -1 -24 14 -5 79 95 44 69 127 197 184 286 l105 161 83 6 c46 3 88
2 92 -2 16 -15 17 -59 2 -71 -8 -7 -15 -18 -15 -25 0 -8 -3 -15 -7 -17 -5 -1
-16 -17 -25 -34 -17 -31 -17 -32 6 -49 19 -14 23 -26 21 -52 -5 -51 -20 -63
-79 -63 l-52 0 -95 -157 c-53 -87 -121 -198 -151 -248 -80 -130 -83 -155 -10
-77 48 50 65 62 90 62 27 0 33 -5 40 -32 l9 -33 12 38 c15 46 54 93 92 112 15
8 55 15 88 15 54 0 61 -3 86 -32 24 -29 27 -38 23 -93 -5 -79 -29 -114 -98
-140 -28 -11 -58 -27 -66 -36 -14 -15 -13 -19 8 -33 30 -21 44 -20 103 8 62
28 154 104 217 178 l48 56 -26 57 c-21 46 -25 68 -22 114 8 110 85 168 220
164 l77 -3 58 73 c160 201 324 369 427 438 48 32 67 39 107 39 43 0 49 -3 55
-24z m-2692 -51 c6 -11 11 -21 12 -23 1 -1 25 9 55 23 74 34 188 36 218 3 31
-32 36 -82 17 -144 -44 -141 -236 -313 -485 -436 -115 -57 -131 -68 -171 -121
-47 -62 -186 -202 -260 -263 -104 -85 -242 -165 -350 -200 -82 -27 -251 -26
-304 2 -60 31 -76 59 -78 134 -1 54 4 75 30 125 33 67 107 145 161 172 22 11
59 18 94 18 50 0 62 -4 78 -24 28 -34 24 -89 -9 -142 -38 -58 -45 -63 -129
-88 -111 -33 -131 -67 -61 -103 35 -19 40 -19 90 -4 29 9 76 29 105 46 59 34
207 171 295 274 l60 68 -39 18 c-43 19 -90 69 -99 106 -3 13 -5 55 -2 92 8
153 136 309 332 406 125 63 217 86 335 83 82 -2 95 -4 105 -22z m996 -54 c0
-5 9 -11 20 -14 11 -3 20 -10 20 -16 0 -13 -29 -14 -49 -2 -19 12 -23 41 -5
41 8 0 14 -4 14 -9z m140 -41 c11 -7 -1 -9 -40 -9 -42 1 -49 3 -30 9 35 11 53
11 70 0z m165 -51 c11 -17 -62 -118 -90 -125 -32 -8 -43 2 -27 24 6 9 23 38
37 65 20 36 31 47 50 47 13 0 27 -5 30 -11z m-911 -145 c5 -18 -1 -34 -20 -59
-19 -25 -22 -35 -12 -35 17 0 46 29 62 63 6 12 22 23 35 25 21 3 22 2 10 -20
-13 -23 -14 -29 -25 -108 -3 -25 -10 -49 -14 -54 -13 -13 -78 13 -85 35 -4 13
-16 19 -38 20 -18 1 -24 3 -14 6 9 2 17 11 17 18 0 7 8 16 18 18 10 3 6 5 -10
6 -16 0 -28 4 -28 8 0 3 17 32 37 64 39 60 55 63 67 13z m-109 6 c-3 -5 -11
-10 -16 -10 -6 0 -7 5 -4 10 3 6 11 10 16 10 6 0 7 -4 4 -10z m3887 -84 c3
-57 2 -60 -23 -66 -65 -18 -732 -11 -750 7 -8 8 -6 13 7 17 41 12 258 28 414
30 143 2 169 4 193 21 17 10 46 18 68 18 30 0 42 5 55 24 22 34 32 19 36 -51z
m-3922 15 c-6 -12 -8 -26 -5 -31 4 -6 -9 -10 -29 -10 -20 0 -36 3 -36 7 0 4
14 22 32 40 34 35 58 31 38 -6z m830 -105 c0 -18 -33 -29 -61 -21 -21 7 -21 7
2 20 33 18 59 18 59 1z m819 -696 c4 0 8 -16 9 -36 2 -30 0 -35 -15 -30 -10 2
-38 10 -63 16 -77 19 -76 18 -30 59 l42 38 26 -24 c14 -12 28 -23 31 -23z
m-700 -85 c67 -93 189 -127 325 -91 l63 17 129 -35 c71 -19 156 -40 190 -47
58 -11 63 -13 104 -70 87 -120 215 -215 329 -245 101 -26 287 -10 369 31 18 9
39 14 48 11 13 -5 39 -55 31 -62 -12 -13 -234 -36 -392 -41 -482 -15 -926 96
-1345 338 -47 27 -96 58 -109 68 l-24 18 39 7 c56 11 82 28 144 90 30 31 57
56 60 56 4 0 21 -20 39 -45z"/>
<path d="M4213 5628 c-49 -7 -73 -14 -73 -23 0 -9 11 -12 39 -8 45 6 46 5 57
-102 8 -85 20 -123 35 -108 7 7 7 34 0 87 -6 43 -11 91 -11 107 0 27 3 29 35
29 24 0 35 5 35 15 0 17 -10 17 -117 3z"/>
<path d="M4511 5546 c-13 -102 -9 -122 31 -150 30 -22 100 -20 127 2 23 18 35
59 46 160 6 51 4 62 -8 62 -15 0 -21 -20 -33 -122 -3 -31 -11 -64 -18 -72 -19
-26 -68 -30 -95 -9 -26 21 -28 37 -17 146 7 65 6 77 -7 77 -11 0 -17 -23 -26
-94z"/>
<path d="M3983 5596 c-46 -21 -68 -58 -52 -88 16 -31 28 -38 70 -38 85 0 119
-21 103 -63 -5 -15 -53 -37 -81 -37 -8 0 -25 12 -39 27 -18 19 -28 23 -35 16
-8 -8 -4 -19 14 -37 71 -71 220 11 163 89 -10 13 -32 21 -81 26 -76 8 -90 17
-81 52 9 37 59 46 97 18 33 -25 39 -26 39 -8 0 39 -69 64 -117 43z"/>
<path d="M4797 5593 c-11 -18 -50 -224 -44 -230 14 -14 27 15 43 95 9 45 20
82 23 82 4 0 24 -47 45 -104 34 -96 57 -129 71 -106 15 23 53 226 45 234 -15
15 -19 5 -38 -83 -10 -45 -22 -83 -26 -84 -5 -1 -26 43 -46 98 -34 91 -58 124
-73 98z"/>
<path d="M3766 5530 c-32 -10 -62 -22 -67 -27 -7 -7 56 -233 64 -233 24 2 152
51 155 60 3 9 -2 11 -14 8 -129 -37 -131 -37 -136 21 -3 33 -1 35 46 47 52 14
74 28 58 38 -5 3 -35 -3 -66 -14 l-57 -19 -10 26 c-16 43 -7 55 54 76 31 10
57 23 57 28 0 13 -17 11 -84 -11z"/>
<path d="M5022 5431 c-37 -125 -37 -131 -17 -131 13 0 31 49 65 178 10 41 8
62 -9 62 -4 0 -22 -49 -39 -109z"/>
<path d="M5130 5510 c0 -5 15 -16 34 -24 l35 -14 -14 -44 c-7 -24 -20 -63 -29
-87 -19 -52 -21 -84 -4 -79 6 2 26 47 43 99 33 98 34 98 89 84 56 -15 22 17
-43 41 -87 31 -111 36 -111 24z"/>
<path d="M3503 5438 c-29 -11 -53 -26 -53 -32 0 -12 64 -176 81 -208 8 -16 15
-15 76 12 51 21 71 36 82 58 13 28 12 34 -3 58 -10 14 -26 29 -37 31 -14 4
-17 11 -12 34 7 37 -19 69 -56 68 -14 0 -50 -10 -78 -21z m102 -43 c0 -25 -6
-33 -39 -48 -47 -22 -60 -18 -74 22 -10 30 -9 32 21 46 18 7 46 13 62 12 26
-2 30 -6 30 -32z m36 -65 c12 -7 19 -21 19 -40 0 -25 -6 -32 -46 -50 -26 -11
-50 -20 -54 -20 -8 0 -30 54 -30 74 0 9 57 38 88 45 2 1 12 -4 23 -9z"/>
<path d="M5357 5423 c-9 -15 -87 -202 -87 -208 0 -9 126 -65 145 -65 31 0 13
18 -40 40 -31 12 -58 26 -60 31 -6 8 20 79 28 79 3 0 30 -11 60 -25 70 -30 88
-14 20 18 -76 36 -75 34 -57 70 9 18 18 33 19 35 1 2 29 -9 61 -23 37 -16 61
-22 67 -16 7 7 -11 19 -48 36 -72 31 -101 39 -108 28z"/>
<path d="M3207 5289 l-68 -40 37 -67 c50 -90 83 -142 90 -142 17 0 143 83 138
91 -3 6 -28 -3 -60 -21 -29 -16 -58 -30 -64 -30 -10 0 -40 51 -40 68 0 5 23
21 50 36 48 26 64 46 38 46 -7 0 -31 -12 -53 -25 -51 -32 -57 -31 -79 6 -16
26 -16 33 -5 40 8 5 32 19 53 31 36 21 59 49 39 48 -4 -1 -39 -19 -76 -41z"/>
<path d="M5616 5191 c-58 -102 -65 -121 -43 -121 13 1 102 153 113 194 13 53
-15 23 -70 -73z"/>
<path d="M5725 5177 c-84 -132 -87 -139 -78 -148 7 -7 28 17 59 65 27 42 52
76 56 76 4 0 9 -53 10 -117 4 -152 12 -154 96 -24 34 54 62 101 62 104 0 4 -6
7 -13 7 -8 0 -36 -35 -63 -77 l-49 -78 -3 114 c-2 102 -11 141 -31 141 -3 0
-24 -28 -46 -63z"/>
<path d="M3050 5185 c0 -9 11 -31 25 -49 14 -18 25 -35 25 -38 0 -5 -52 -42
-97 -71 -8 -5 -21 6 -39 33 -25 38 -54 53 -54 29 0 -18 134 -199 148 -199 20
0 14 24 -17 67 l-29 40 49 37 c27 20 52 36 56 36 5 0 21 -18 36 -40 28 -40 41
-48 51 -32 6 11 -124 194 -142 200 -6 2 -12 -4 -12 -13z"/>
<path d="M2785 4977 c-37 -34 -66 -69 -64 -76 4 -10 14 -5 38 15 l34 28 73
-79 c58 -64 76 -77 86 -67 10 10 4 21 -28 55 -21 23 -54 59 -73 79 l-34 37 27
24 c25 24 34 47 18 47 -4 0 -39 -28 -77 -63z"/>
<path d="M6060 5019 c0 -7 12 -25 26 -40 l26 -27 -71 -77 c-72 -79 -78 -89
-62 -99 9 -6 38 23 123 118 l34 38 31 -26 c33 -28 43 -32 43 -17 0 10 -96 104
-130 128 -15 11 -20 11 -20 2z"/>
<path d="M6165 4779 c-77 -67 -100 -99 -75 -99 7 0 28 14 47 30 18 17 37 30
41 30 10 0 82 -86 82 -97 0 -4 -16 -21 -35 -36 -32 -26 -47 -57 -26 -57 11 0
181 148 181 159 0 22 -17 18 -55 -13 l-41 -34 -44 50 -44 51 37 31 c37 31 48
57 25 55 -7 0 -49 -32 -93 -70z"/>
<path d="M2597 4794 c-3 -4 5 -36 19 -72 l24 -65 -69 6 c-51 4 -73 2 -80 -7
-9 -11 -3 -15 26 -20 21 -3 57 -6 80 -6 32 0 52 -8 87 -35 37 -28 48 -32 52
-20 5 13 -40 64 -58 65 -3 0 -18 36 -33 80 -25 76 -33 88 -48 74z"/>
<path d="M6337 4555 c-53 -36 -97 -67 -97 -70 0 -8 83 -126 92 -131 23 -15 17
10 -16 63 l-36 57 28 23 c15 12 32 22 37 22 6 1 25 -22 43 -49 17 -28 37 -50
42 -50 16 0 12 12 -20 60 -16 25 -30 50 -30 56 0 11 42 44 54 44 3 0 24 -25
46 -55 23 -31 45 -53 50 -50 9 6 -70 137 -86 142 -5 2 -53 -26 -107 -62z"/>
<path d="M2377 4483 c-4 -3 -7 -10 -7 -14 0 -8 187 -129 200 -129 9 0 76 98
87 127 3 7 0 13 -6 13 -6 0 -27 -25 -47 -55 l-36 -54 -57 38 c-92 61 -128 81
-134 74z"/>
<path d="M2307 4348 c-29 -48 -67 -117 -67 -122 0 -7 221 -119 224 -114 2 2
17 33 35 71 26 54 31 72 24 95 -12 36 -57 58 -89 43 -19 -8 -24 -8 -24 4 0 19
-39 45 -67 45 -13 0 -29 -10 -36 -22z m64 -18 c23 -13 24 -38 2 -85 -19 -39
-37 -43 -71 -17 l-24 18 23 40 c20 34 37 53 47 54 2 0 12 -5 23 -10z m109 -48
c26 -21 24 -46 -10 -100 -20 -32 -21 -32 -49 -17 -17 8 -32 19 -36 25 -10 16
45 110 65 110 4 0 18 -8 30 -18z"/>
<path d="M6523 4259 c-62 -47 -93 -78 -93 -91 0 -18 5 -19 48 -14 63 9 112 16
140 22 39 8 24 -12 -53 -71 -71 -54 -87 -76 -65 -90 10 -6 241 22 249 31 3 2
0 9 -6 15 -7 7 -37 5 -98 -5 -95 -17 -120 -13 -83 12 52 35 128 105 128 118 0
22 -11 23 -109 8 -52 -8 -97 -11 -100 -8 -3 4 0 9 7 11 23 9 146 108 145 118
-3 21 -22 12 -110 -56z"/>
<path d="M2268 4083 c-89 -3 -98 -6 -98 -23 0 -28 194 -197 199 -173 2 10 -8
26 -23 38 -31 24 -31 27 -10 82 15 39 19 42 58 45 29 2 42 8 44 21 3 14 -3 17
-35 15 -21 -1 -82 -4 -135 -5z m52 -43 c0 -14 -23 -60 -29 -60 -10 0 -81 60
-81 68 0 4 25 5 55 4 30 -2 55 -8 55 -12z"/>
<path d="M6609 3937 c-62 -42 -76 -108 -36 -168 56 -84 202 -63 234 34 38 113
-95 204 -198 134z m144 -27 c74 -58 22 -160 -82 -160 -97 0 -128 119 -43 164
39 22 95 20 125 -4z"/>
<path d="M2120 3870 c-20 -20 -54 -122 -48 -142 4 -10 194 -68 224 -68 13 0
44 102 44 143 0 15 -9 36 -20 47 -21 21 -80 28 -80 10 0 -16 -18 -12 -40 10
-25 25 -55 25 -80 0z m65 -24 c18 -13 19 -18 7 -62 -7 -27 -15 -50 -17 -52 -1
-2 -20 0 -40 4 -33 6 -36 9 -30 32 12 50 34 92 48 92 7 0 22 -6 32 -14z m118
-24 c16 -17 16 -23 1 -71 -15 -52 -16 -53 -47 -47 -17 4 -36 11 -41 16 -10 10
8 85 26 108 15 17 42 15 61 -6z"/>
<path d="M6715 3659 c-60 -10 -111 -18 -113 -18 -2 -1 -2 -7 1 -13 2 -8 23
-13 57 -13 53 0 54 0 62 -35 13 -59 3 -78 -47 -91 -26 -7 -45 -17 -45 -25 0
-17 13 -17 63 -3 21 5 41 17 44 25 5 13 8 13 29 -1 51 -33 104 -3 104 60 0 53
-20 135 -33 134 -7 -1 -61 -10 -122 -20z m120 -46 c4 -16 8 -37 10 -47 8 -41
-30 -75 -65 -56 -14 8 -40 81 -40 115 0 5 31 13 62 14 22 1 29 -4 33 -26z"/>
<path d="M2078 3623 c-66 -42 -76 -144 -19 -195 38 -34 107 -46 147 -25 47 24
67 53 72 106 4 45 1 52 -30 86 -31 34 -41 39 -89 42 -39 3 -61 -1 -81 -14z
m141 -40 c81 -61 17 -172 -89 -153 -58 11 -80 34 -80 85 0 65 38 99 104 91 22
-3 51 -13 65 -23z"/>
<path d="M6738 3401 c-48 -4 -89 -9 -92 -12 -3 -3 -2 -41 2 -85 8 -94 29 -100
24 -7 l-3 62 43 5 c24 3 72 7 106 10 69 6 86 12 77 27 -6 10 -18 10 -157 0z"/>
<path d="M2028 3348 c-15 -5 -30 -17 -33 -27 -10 -32 -22 -152 -15 -156 7 -4
199 -25 231 -25 10 0 19 6 19 14 0 10 -17 17 -56 22 l-56 6 7 52 c4 28 11 55
16 61 5 5 30 12 57 15 26 3 47 10 47 15 0 15 -81 18 -106 5 -15 -8 -24 -9 -28
-2 -12 19 -55 30 -83 20z m56 -34 c12 -5 16 -21 16 -64 0 -33 -3 -61 -7 -63
-5 -3 -26 -2 -48 2 l-40 6 4 45 c5 73 25 93 75 74z"/>
<path d="M6660 3139 c0 -113 34 -153 133 -154 54 0 61 3 88 33 26 29 29 39 29
102 0 66 -1 70 -22 71 -13 1 -69 2 -125 3 l-103 1 0 -56z m225 -9 c13 -60 -16
-105 -75 -115 -48 -8 -108 18 -114 49 -12 58 -14 84 -9 90 4 3 48 6 99 6 l92
0 7 -30z"/>
<path d="M1984 3069 c-14 -16 -18 -36 -19 -92 l0 -72 123 0 c73 0 123 4 125
10 1 6 -19 11 -45 13 -52 3 -64 20 -53 72 6 29 -7 68 -29 82 -23 16 -83 8
-102 -13z m96 -28 c5 -11 10 -38 10 -61 0 -47 -12 -56 -65 -46 -33 7 -35 9
-35 47 0 56 15 79 50 79 19 0 33 -7 40 -19z"/>
<path d="M5037 3872 l-437 -437 2 -310 3 -310 401 -5 400 -5 3 -57 c4 -92 0
-98 -70 -98 l-59 0 0 -240 0 -240 408 0 c304 0 411 3 420 12 9 9 12 76 12 240
l0 228 -65 0 -65 0 0 80 0 80 110 0 110 0 0 241 0 242 -84 -5 c-46 -3 -95 -3
-110 -1 l-26 5 -2 507 -3 506 -256 2 -256 1 -436 -436z m901 -124 l2 -508 110
0 110 0 0 -190 0 -190 -110 0 -110 0 0 -130 0 -130 65 0 65 0 0 -190 0 -190
-370 0 -370 0 0 190 0 190 60 0 60 0 0 130 0 130 -402 0 -403 0 2 242 c2 134
3 262 3 284 0 42 3 44 416 458 l415 416 227 -2 227 -3 3 -507z"/>
<path d="M5117 3782 l-397 -397 0 -228 0 -227 400 0 400 0 0 -200 0 -200 -60
0 -60 0 0 -120 0 -120 300 0 300 0 0 120 0 120 -65 0 -65 0 0 200 0 200 110 0
110 0 0 120 c0 89 -3 120 -12 120 -10 0 -13 -29 -12 -115 l2 -115 -49 0 c-27
0 -49 4 -49 8 0 5 13 27 30 50 l29 41 -24 23 c-14 13 -25 32 -25 43 0 12 -5
26 -12 33 -9 9 -8 12 3 16 8 2 21 7 29 9 8 3 -18 6 -57 6 l-73 1 0 505 0 505
-178 0 -177 0 -398 -398z m403 -332 l0 -280 -225 0 -225 0 0 60 0 60 218 220
c119 121 220 220 225 220 4 0 7 -126 7 -280z m-40 -939 c0 -5 -7 -12 -16 -15
-22 -9 -24 -8 -24 9 0 8 9 15 20 15 11 0 20 -4 20 -9z m500 -16 c4 -172 2
-190 -16 -193 -38 -5 -48 12 -35 61 17 70 14 102 -11 119 -29 19 -15 38 28 38
30 0 34 -3 34 -25z m-523 -130 c3 -9 22 -24 42 -34 l36 -19 -37 -7 c-51 -10
-72 -3 -76 23 -7 44 21 72 35 37z"/>
<path d="M5364 3460 c-40 -39 -70 -70 -69 -70 1 0 -32 -34 -74 -75 l-76 -75
153 1 152 0 0 145 c0 79 -3 144 -7 144 -5 0 -40 -32 -79 -70z m36 -100 l0 -70
-42 -2 c-56 -2 -89 0 -95 6 -6 6 118 136 129 136 4 0 8 -31 8 -70z m-160 -91
c0 -5 -9 -9 -20 -9 -22 0 -27 16 -7 23 15 5 27 -1 27 -14z"/>
<path d="M3343 3820 l-53 -49 0 -106 0 -105 52 -50 52 -50 172 0 171 0 47 50
47 50 0 107 -1 107 -47 48 -47 48 -171 0 -170 -1 -52 -49z m377 31 c0 -5 -7
-11 -14 -14 -25 -10 -157 0 -169 12 -8 8 13 11 86 11 53 0 97 -4 97 -9z m37
-63 c32 -31 33 -34 33 -116 0 -89 -7 -112 -49 -148 -25 -22 -33 -23 -181 -23
-167 0 -176 2 -212 56 -14 22 -18 48 -18 113 0 81 1 85 32 117 l32 33 165 0
165 0 33 -32z"/>
<path d="M4724 2430 c-68 -38 -229 -191 -213 -200 8 -5 -1 -22 -27 -51 -72
-81 -79 -90 -63 -84 8 3 22 18 31 33 9 15 47 59 85 97 87 89 115 127 40 55
-31 -30 -57 -49 -57 -43 0 6 35 43 77 83 102 95 217 162 199 115 -3 -8 -1 -15
4 -15 6 0 10 9 10 20 0 28 -26 25 -86 -10z"/>
<path d="M4763 2353 c-30 -75 -20 -82 12 -9 27 62 28 66 18 66 -5 0 -18 -26
-30 -57z"/>
<path d="M4674 2364 c-38 -36 -20 -28 23 9 12 11 27 16 34 12 8 -5 10 -4 5 3
-11 18 -20 15 -62 -24z"/>
<path d="M4710 2355 c-7 -9 -10 -18 -7 -21 3 -3 10 4 17 15 13 25 8 27 -10 6z"/>
<path d="M6835 2298 c-11 -70 -25 -204 -24 -238 1 -19 8 21 15 90 20 182 15
170 78 170 l54 0 -1 -102 -2 -103 48 -3 c66 -4 59 -20 -10 -25 l-58 -3 63 -2
c56 -2 62 0 62 18 0 17 -7 20 -52 20 l-51 0 6 105 7 105 -65 0 -64 0 -6 -32z"/>
<path d="M4667 2278 c-36 -63 -51 -94 -39 -83 13 14 75 125 69 125 -3 0 -16
-19 -30 -42z"/>
<path d="M3555 2292 c-11 -8 -55 -69 -55 -76 0 -2 -45 -73 -100 -158 -159
-245 -215 -338 -254 -418 -44 -90 -33 -76 37 48 29 51 71 123 95 160 77 119
115 179 201 312 l83 130 49 0 c27 0 49 -2 49 -5 0 -3 -7 -18 -16 -33 -15 -25
-15 -26 1 -7 42 51 40 55 -22 55 -32 0 -62 -4 -68 -8z"/>
<path d="M4721 2248 c-10 -30 -9 -31 4 -14 8 11 15 26 15 33 0 22 -8 14 -19
-19z"/>
<path d="M3602 2187 c-11 -19 -27 -45 -36 -59 -14 -21 -14 -28 -4 -34 7 -4 10
-4 6 0 -4 5 3 25 16 45 31 49 48 81 42 81 -2 0 -13 -15 -24 -33z"/>
<path d="M4473 2205 c-5 -8 -29 -36 -54 -62 -49 -52 -154 -183 -146 -183 3 0
30 31 61 69 30 38 81 97 112 130 31 34 51 61 46 61 -6 0 -15 -7 -19 -15z"/>
<path d="M4498 2117 c-110 -132 -162 -199 -183 -230 -17 -27 -17 -27 13 -58
l30 -30 92 173 c52 95 102 186 113 201 10 16 17 30 15 32 -2 3 -39 -37 -80
-88z"/>
<path d="M4646 2053 c-74 -198 -71 -190 -59 -178 6 6 18 33 28 60 9 28 21 59
26 70 5 11 20 49 33 85 13 36 29 77 35 93 6 15 7 27 3 27 -4 0 -34 -71 -66
-157z"/>
<path d="M4607 2173 c-8 -15 -65 -119 -132 -243 -37 -69 -72 -131 -77 -137 -7
-9 -7 -13 1 -13 6 0 15 8 18 18 4 9 42 81 84 159 96 175 121 223 115 223 -3 0
-7 -3 -9 -7z"/>
<path d="M7116 2104 c-9 -8 -16 -20 -16 -25 0 -20 40 -87 55 -93 23 -9 68 -7
84 3 27 17 -21 131 -56 131 -17 -1 -17 -1 0 -11 22 -13 60 -87 53 -105 -6 -15
-63 -19 -82 -6 -18 12 -46 73 -40 88 3 8 16 19 28 24 16 6 18 9 6 9 -9 1 -24
-6 -32 -15z"/>
<path d="M2702 2072 c-34 -17 -61 -75 -49 -106 8 -21 65 -21 94 -1 24 17 48
87 39 111 -7 18 -43 17 -84 -4z m78 -4 c0 -33 -23 -89 -40 -98 -23 -12 -80
-13 -80 -1 0 41 16 75 44 92 35 22 76 25 76 7z"/>
<path d="M4369 2038 c-54 -71 -55 -73 -42 -65 12 8 86 107 79 107 -2 0 -19
-19 -37 -42z"/>
<path d="M3518 2053 c-9 -10 -64 -99 -123 -198 -127 -212 -117 -195 -111 -195
2 0 25 35 51 78 25 42 64 106 86 141 21 34 39 65 39 67 0 9 72 109 83 116 8 5
8 8 1 8 -6 0 -18 -8 -26 -17z"/>
<path d="M6925 1945 c-4 -70 -5 -128 -2 -131 2 -3 8 52 12 121 4 70 5 128 2
131 -2 3 -8 -52 -12 -121z"/>
<path d="M6803 1985 c0 -22 2 -30 4 -17 2 12 2 30 0 40 -3 9 -5 -1 -4 -23z"/>
<path d="M6546 1958 c-2 -7 -9 -28 -15 -47 -6 -19 -9 -36 -6 -39 2 -3 10 16
17 41 15 58 29 51 21 -11 -5 -47 -5 -48 71 -137 42 -50 87 -112 101 -139 14
-28 25 -43 25 -35 0 26 -57 113 -125 189 -65 75 -66 75 -63 129 2 36 -1 55 -9
58 -7 3 -15 -1 -17 -9z"/>
<path d="M4280 1923 c-14 -20 -29 -42 -34 -48 -7 -9 5 -29 36 -66 25 -30 51
-64 57 -76 16 -31 27 -29 46 7 9 17 11 30 6 30 -5 0 -12 -11 -15 -25 -6 -24
-26 -36 -26 -16 0 6 -22 37 -50 70 -27 33 -50 63 -50 66 0 4 16 27 36 51 20
24 32 44 28 44 -5 0 -20 -17 -34 -37z"/>
<path d="M4249 1933 c-13 -16 -12 -17 4 -4 16 13 21 21 13 21 -2 0 -10 -8 -17
-17z"/>
<path d="M7327 1898 c-14 -29 -28 -69 -31 -88 -3 -19 5 -4 18 33 26 72 41 97
60 97 19 0 65 -48 86 -90 24 -48 39 -50 70 -10 13 17 25 29 26 27 2 -2 -5 -27
-16 -55 -14 -36 -20 -77 -20 -130 0 -78 31 -325 38 -304 2 6 -4 59 -12 117
-27 181 -16 328 28 365 30 24 65 -17 93 -110 l13 -45 -6 40 c-7 49 -38 111
-62 124 -30 16 -62 8 -87 -21 -13 -15 -25 -28 -28 -28 -2 0 -18 22 -36 50 -62
96 -99 103 -134 28z"/>
<path d="M6793 1895 c0 -27 2 -38 4 -22 2 15 2 37 0 50 -2 12 -4 0 -4 -28z"/>
<path d="M5477 1907 c-20 -12 -50 -38 -66 -57 -36 -44 -114 -171 -108 -177 3
-2 19 22 37 54 49 87 91 138 135 167 44 29 72 33 101 11 10 -8 26 -14 34 -14
22 0 -52 38 -75 39 -11 0 -37 -10 -58 -23z"/>
<path d="M5637 1923 c-4 -3 -7 -11 -7 -17 0 -6 5 -5 12 2 13 13 84 17 91 5 2
-5 -6 -48 -19 -98 -25 -97 -31 -162 -8 -80 22 79 42 179 37 188 -5 9 -97 9
-106 0z"/>
<path d="M6240 1923 c-93 -14 -90 -13 -89 -41 2 -24 2 -24 6 -5 5 24 18 29 86
36 38 3 39 2 33 -25 -14 -68 -15 -89 -1 -43 8 28 15 58 15 68 0 17 -3 18 -50
10z"/>
<path d="M2767 1875 c-57 -46 -157 -153 -157 -167 0 -14 33 8 69 46 19 20 39
36 43 36 15 0 8 -37 -13 -64 -11 -14 -16 -26 -10 -26 14 0 41 53 41 80 0 12
-7 20 -17 20 -12 1 1 18 41 56 75 71 91 69 91 -11 1 -57 2 -60 24 -57 22 2 21
-1 -15 -40 -41 -45 -92 -115 -114 -158 -19 -38 -7 -22 49 62 50 74 162 188
186 188 6 0 17 -6 24 -12 10 -11 11 -10 6 5 -4 9 -12 17 -19 17 -6 0 -4 5 4
10 24 15 2 12 -31 -5 -17 -9 -27 -21 -23 -27 4 -7 3 -8 -5 -4 -6 4 -24 -2 -40
-13 -16 -12 -31 -21 -34 -21 -2 0 -2 22 1 50 5 51 -7 80 -33 80 -7 0 -38 -20
-68 -45z m-57 -78 c0 -2 -15 -16 -32 -33 l-33 -29 29 33 c28 30 36 37 36 29z"/>
<path d="M4882 1828 c-82 -191 -110 -322 -80 -378 40 -76 94 -9 199 249 22 52
37 96 35 98 -2 2 -18 -34 -36 -79 -65 -164 -133 -288 -157 -288 -32 0 -49 80
-33 151 6 26 13 53 14 60 2 8 5 21 8 29 3 8 14 38 23 65 10 28 33 80 52 118
18 37 29 67 24 67 -5 0 -27 -42 -49 -92z"/>
<path d="M5117 1913 c-41 -4 -49 -8 -58 -30 -5 -14 -8 -31 -6 -37 2 -6 7 4 11
22 7 29 11 32 44 32 20 0 47 3 59 6 23 6 23 6 -7 -75 -16 -45 -32 -86 -35 -91
-3 -6 -3 -10 2 -10 9 0 73 157 73 178 0 6 -8 11 -17 10 -10 -1 -40 -3 -66 -5z"/>
<path d="M5963 1913 c26 -2 45 -7 43 -11 -10 -17 -53 -182 -47 -182 3 0 16 37
28 83 12 45 24 90 28 100 6 15 1 17 -46 15 l-54 -2 48 -3z"/>
<path d="M7595 1905 c-25 -12 -26 -14 -5 -9 28 7 60 23 45 23 -5 0 -23 -6 -40
-14z"/>
<path d="M2174 1875 c-44 -21 -108 -69 -174 -128 -91 -81 -200 -196 -200 -210
0 -2 57 53 128 123 123 123 250 220 307 234 18 5 38 1 60 -13 33 -19 34 -19
56 0 22 19 89 27 89 11 0 -5 -18 -35 -40 -68 -26 -38 -30 -47 -12 -27 15 18
38 51 51 73 l22 40 -44 0 c-29 0 -53 -7 -68 -19 -22 -18 -24 -18 -53 0 -41 25
-42 25 -122 -16z"/>
<path d="M4024 1891 c-52 -24 -85 -69 -86 -118 0 -36 33 -135 53 -159 7 -8 -7
-31 -43 -70 -29 -33 -57 -62 -63 -66 -5 -4 -7 -10 -4 -13 4 -3 34 26 67 66
l60 71 -30 66 c-32 72 -37 116 -17 153 26 49 62 69 139 79 l55 7 -45 1 c-25 1
-63 -7 -86 -17z"/>
<path d="M4220 1899 c0 -8 -11 -9 -32 -5 -24 4 -29 3 -18 -4 22 -14 46 -12 60
5 9 10 9 15 1 15 -6 0 -11 -5 -11 -11z"/>
<path d="M4833 1903 c15 -2 37 -2 50 0 12 2 0 4 -28 4 -27 0 -38 -2 -22 -4z"/>
<path d="M5874 1896 c-3 -8 -4 -23 -1 -33 3 -12 5 -9 6 9 1 16 8 28 19 31 16
4 16 5 -1 6 -10 0 -20 -5 -23 -13z"/>
<path d="M7675 1896 c43 -19 83 -66 105 -122 10 -27 19 -42 20 -33 0 27 -51
118 -82 144 -16 14 -39 25 -51 25 -19 -1 -17 -3 8 -14z"/>
<path d="M4785 1888 c-41 -124 -74 -232 -71 -235 3 -3 45 120 81 235 3 6 2 12
-1 12 -2 0 -7 -6 -9 -12z"/>
<path d="M3075 1879 c39 -15 37 -13 45 -56 7 -36 8 -36 9 -7 1 39 -16 61 -54
69 l-30 5 30 -11z"/>
<path d="M5521 1843 c-35 -42 -91 -153 -113 -223 -16 -50 -24 -170 -11 -170 4
0 8 33 9 73 1 58 8 88 34 152 49 117 105 195 139 195 35 0 35 -24 2 -127 -17
-53 -29 -98 -27 -101 3 -2 19 42 37 99 34 111 32 132 -13 137 -19 2 -33 -6
-57 -35z"/>
<path d="M7103 1768 c4 -57 3 -136 -1 -176 -4 -40 -5 -75 -2 -77 10 -6 15 105
12 233 l-3 112 60 0 60 0 4 -152 3 -153 2 158 2 157 -71 0 -72 0 6 -102z"/>
<path d="M2209 1828 c-24 -17 -78 -66 -119 -107 -158 -159 -242 -311 -171
-311 44 0 381 381 381 431 0 29 -41 23 -91 -13z m81 9 c0 -24 -238 -307 -318
-377 -71 -63 -92 -49 -51 33 64 125 292 357 351 357 10 0 18 -6 18 -13z"/>
<path d="M2089 1653 c-55 -61 -85 -97 -73 -90 13 8 118 127 112 127 -2 0 -20
-17 -39 -37z"/>
<path d="M4546 1779 c-16 -46 -31 -91 -34 -99 -3 -10 -2 -12 5 -5 6 6 18 35
27 65 10 30 22 65 28 77 6 11 8 27 6 33 -2 7 -17 -25 -32 -71z"/>
<path d="M6136 1809 c-4 -23 -5 -44 -2 -46 2 -2 7 14 11 37 4 23 5 43 2 46 -2
3 -7 -14 -11 -37z"/>
<path d="M2452 1728 c-39 -61 -70 -113 -68 -116 3 -2 38 46 78 107 l73 111 53
0 c58 0 58 1 12 -60 -15 -19 -30 -42 -34 -50 -9 -19 23 21 64 78 l31 42 -68 0
-68 -1 -73 -111z"/>
<path d="M5862 1815 c0 -16 2 -22 5 -12 2 9 2 23 0 30 -3 6 -5 -1 -5 -18z"/>
<path d="M6446 1747 c-31 -51 -56 -98 -56 -104 0 -35 25 -13 75 67 32 49 61
90 65 90 4 0 13 -21 21 -47 7 -26 14 -42 16 -37 6 19 -24 89 -38 89 -8 0 -38
-37 -68 -83 -30 -45 -56 -80 -59 -77 -3 2 10 28 28 57 48 76 82 138 77 138 -3
0 -30 -42 -61 -93z"/>
<path d="M6783 1795 c0 -27 2 -38 4 -22 2 15 2 37 0 50 -2 12 -4 0 -4 -28z"/>
<path d="M7332 1817 c-5 -7 -12 -23 -16 -37 -4 -16 0 -13 10 9 14 32 16 33 32
17 14 -13 17 -36 17 -110 0 -52 3 -92 8 -89 11 7 8 146 -4 181 -12 34 -33 47
-47 29z"/>
<path d="M4002 1803 c-27 -24 -33 -62 -16 -98 11 -25 13 -26 8 -5 -4 14 -6 27
-6 30 -1 59 21 83 66 76 24 -5 27 -4 11 3 -30 14 -41 13 -63 -6z"/>
<path d="M3007 1803 c-4 -3 -7 -14 -7 -22 0 -24 -63 -152 -108 -218 -96 -144
-121 -227 -77 -260 31 -23 136 -12 184 20 l39 26 6 -29 c7 -36 45 -63 78 -55
14 4 60 43 104 88 l79 82 -75 -71 c-41 -40 -85 -77 -98 -83 -33 -17 -59 -5
-72 34 -6 19 -15 37 -19 39 -4 3 -24 -6 -44 -21 -26 -18 -53 -27 -100 -30 -61
-5 -66 -4 -82 20 -24 37 -14 69 61 193 78 128 131 232 138 268 5 27 4 30 -7
19z"/>
<path d="M4104 1787 c19 -14 19 -15 2 -43 l-18 -29 23 23 c19 17 21 26 13 39
-6 9 -17 19 -25 21 -8 2 -5 -2 5 -11z"/>
<path d="M5527 1763 c-44 -71 -106 -247 -92 -261 7 -8 49 85 86 191 20 59 36
107 33 107 -2 0 -14 -17 -27 -37z"/>
<path d="M6236 1714 c-10 -41 -16 -77 -14 -80 3 -2 12 30 22 72 10 41 16 77
14 80 -3 2 -12 -30 -22 -72z"/>
<path d="M3102 1744 c-6 -21 -32 -75 -58 -119 -95 -165 -106 -185 -101 -185 7
0 134 221 157 274 12 26 20 52 18 58 -2 6 -9 -7 -16 -28z"/>
<path d="M5852 1755 c0 -16 2 -22 5 -12 2 9 2 23 0 30 -3 6 -5 -1 -5 -18z"/>
<path d="M6907 1715 c-4 -38 -6 -99 -6 -135 2 -50 4 -39 10 50 10 130 7 192
-4 85z"/>
<path d="M4028 1764 c-3 -3 -4 -14 -1 -25 4 -15 8 -17 19 -8 18 15 18 39 1 39
-8 0 -16 -3 -19 -6z"/>
<path d="M7284 1751 c1 -17 26 -28 26 -11 0 6 -4 9 -9 5 -5 -3 -11 0 -14 7 -2
9 -4 8 -3 -1z"/>
<path d="M2309 1708 c-24 -29 -36 -47 -26 -39 20 16 81 91 74 91 -2 0 -24 -24
-48 -52z"/>
<path d="M6116 1719 c-8 -42 0 -50 9 -9 4 17 5 34 2 36 -2 3 -7 -10 -11 -27z"/>
<path d="M4096 1679 c-26 -33 -49 -66 -52 -73 -6 -16 101 -118 153 -144 32
-17 43 -19 51 -9 16 21 44 79 39 83 -2 3 -14 -16 -26 -41 l-22 -46 -48 26
c-27 15 -70 49 -96 75 l-48 49 43 58 c24 32 48 61 54 65 6 4 8 9 5 12 -3 4
-27 -21 -53 -55z"/>
<path d="M4170 1726 c0 -2 8 -10 18 -17 15 -13 16 -12 3 4 -13 16 -21 21 -21
13z"/>
<path d="M5094 1663 c-33 -74 -75 -196 -69 -201 5 -5 5 -5 34 78 11 30 31 83
44 118 32 78 25 81 -9 5z"/>
<path d="M5835 1675 c-3 -26 -4 -49 -2 -51 3 -3 8 16 12 41 3 26 4 49 2 51 -3
3 -8 -16 -12 -41z"/>
<path d="M6772 1700 c0 -14 2 -19 5 -12 2 6 2 18 0 25 -3 6 -5 1 -5 -13z"/>
<path d="M7802 1695 c0 -16 2 -22 5 -12 2 9 2 23 0 30 -3 6 -5 -1 -5 -18z"/>
<path d="M4056 1679 c-14 -17 -30 -27 -36 -24 -5 3 -10 1 -10 -4 0 -23 29 -10
54 24 33 43 27 46 -8 4z"/>
<path d="M5946 1673 c-3 -21 -5 -63 -4 -93 1 -44 2 -37 9 35 8 94 6 122 -5 58z"/>
<path d="M6489 1673 c-36 -61 -60 -83 -91 -83 -21 0 -28 -5 -28 -20 0 -17 7
-20 49 -20 75 0 130 -55 132 -132 l1 -33 10 35 c15 51 -17 269 -41 285 -5 3
-19 -12 -32 -32z"/>
<path d="M7327 1703 c-5 -7 -19 -13 -33 -13 l-24 0 6 -87 c3 -49 7 -89 9 -91
1 -2 8 25 14 59 6 34 18 70 27 80 8 9 14 28 12 41 -2 16 -6 19 -11 11z"/>
<path d="M2522 1658 c-60 -88 -132 -208 -132 -220 0 -7 9 5 21 26 12 22 50 84
85 138 63 97 82 137 26 56z"/>
<path d="M6572 1690 c0 -8 4 -26 8 -40 6 -20 8 -21 8 -5 0 11 -3 29 -8 40 -5
12 -8 14 -8 5z"/>
<path d="M7683 1665 c0 -22 2 -30 4 -17 2 12 2 30 0 40 -3 9 -5 -1 -4 -23z"/>
<path d="M2651 1641 c-18 -27 -39 -47 -45 -45 -7 3 -37 -24 -67 -58 -55 -65
-87 -94 -123 -115 -12 -7 -16 -12 -10 -13 20 0 88 56 137 113 27 32 56 57 65
57 16 1 99 110 84 110 -4 0 -22 -22 -41 -49z"/>
<path d="M4218 1683 c12 -2 30 -2 40 0 9 3 -1 5 -23 4 -22 0 -30 -2 -17 -4z"/>
<path d="M4293 1673 c9 -2 23 -2 30 0 6 3 -1 5 -18 5 -16 0 -22 -2 -12 -5z"/>
<path d="M5666 1623 c-9 -32 -29 -97 -45 -145 -28 -88 -28 -114 2 -102 27 10
20 -4 -10 -20 -16 -8 -23 -15 -17 -16 21 0 128 85 168 135 35 42 41 46 47 29
6 -14 8 -15 8 -3 2 27 -12 30 -36 7 -13 -12 -23 -17 -23 -11 0 6 7 16 16 23 8
8 20 23 25 34 6 12 -2 5 -17 -14 -39 -50 -127 -136 -154 -150 -27 -15 -28 -22
24 160 19 68 34 126 32 128 -2 2 -11 -23 -20 -55z m73 -160 c-33 -37 -60 -61
-84 -74 -11 -7 7 13 40 44 65 61 82 73 44 30z"/>
<path d="M2583 1658 c-22 -29 -23 -36 -3 -31 26 7 48 43 27 43 -8 0 -19 -6
-24 -12z"/>
<path d="M3557 1648 c-93 -55 -129 -258 -59 -337 15 -16 41 -33 57 -36 l30 -7
-34 19 c-58 31 -74 62 -74 146 0 127 64 227 146 227 88 0 92 -142 5 -177 -22
-9 -37 -17 -35 -19 9 -9 77 27 91 48 9 13 16 43 16 69 0 39 -5 51 -26 68 -34
27 -69 26 -117 -1z"/>
<path d="M4125 1634 l-25 -33 43 -40 c38 -37 74 -59 81 -49 1 1 14 31 29 66
l26 62 -27 0 c-15 1 -44 7 -64 14 -37 13 -38 13 -63 -20z"/>
<path d="M6101 1654 c0 -11 3 -14 6 -6 3 7 2 16 -1 19 -3 4 -6 -2 -5 -13z"/>
<path d="M6770 1661 c0 -6 4 -13 10 -16 6 -3 7 1 4 9 -7 18 -14 21 -14 7z"/>
<path d="M4312 1608 c-29 -69 -22 -71 11 -3 15 30 23 55 19 55 -4 0 -18 -23
-30 -52z"/>
<path d="M5270 1608 c-25 -58 -36 -147 -26 -202 4 -20 21 -52 38 -71 26 -30
36 -35 75 -35 35 0 49 5 69 27 25 27 39 27 28 0 -3 -8 -24 -23 -47 -32 -68
-26 -178 -95 -228 -142 -40 -38 -67 -50 -208 -99 -89 -31 -192 -60 -229 -64
l-67 -9 65 3 c46 2 112 19 227 58 144 49 168 61 214 102 54 49 165 119 209
131 14 4 -11 -17 -55 -46 -82 -55 -107 -90 -63 -88 17 1 18 3 6 6 -30 8 -21
20 58 72 91 61 108 64 100 19 -5 -25 -4 -28 3 -13 17 36 13 55 -11 55 -22 1
-22 1 -3 12 29 15 45 39 45 65 0 31 -5 29 -41 -12 -26 -30 -38 -35 -73 -35
-98 0 -136 127 -81 277 29 81 26 94 -5 21z"/>
<path d="M7813 1620 c0 -25 2 -35 4 -22 2 12 2 32 0 45 -2 12 -4 2 -4 -23z"/>
<path d="M2239 1623 c-92 -103 -134 -166 -125 -189 9 -22 60 7 129 74 31 31
57 52 57 47 0 -10 -111 -125 -185 -192 -37 -33 -38 -34 -6 -12 19 12 71 59
115 103 45 44 86 79 93 78 6 -1 21 11 32 27 31 44 25 51 -10 11 -20 -22 -28
-28 -24 -15 20 57 12 55 -56 -16 -75 -78 -139 -122 -139 -96 0 16 19 44 93
135 58 72 73 96 26 45z m74 -48 c-3 -9 -8 -14 -10 -11 -3 3 -2 9 2 15 9 16 15
13 8 -4z"/>
<path d="M3264 1638 c-4 -7 -14 -24 -22 -38 -14 -24 -13 -24 3 -5 20 24 37 55
31 55 -3 0 -8 -6 -12 -12z"/>
<path d="M4696 1613 c-9 -40 -22 -49 -43 -32 -13 11 -18 9 -37 -16 -46 -65
-79 -95 -129 -119 -29 -14 -45 -25 -36 -26 37 -1 130 78 186 159 2 3 8 0 15
-7 8 -8 -2 -26 -41 -71 -56 -64 -105 -100 -161 -117 -35 -10 -35 -11 -33 -62
5 -110 60 -229 126 -273 l32 -21 -31 29 c-62 56 -108 155 -119 259 l-5 52 46
11 c37 9 62 27 122 86 42 41 77 73 79 71 2 -2 -1 -15 -7 -30 -5 -15 -10 -37
-9 -49 0 -12 8 7 18 43 9 36 23 78 29 94 7 16 11 34 9 40 -2 6 -7 -4 -11 -21z"/>
<path d="M4468 1547 c-16 -45 -28 -89 -27 -97 0 -8 9 12 20 45 10 33 23 69 28
80 16 34 21 55 13 55 -4 0 -19 -37 -34 -83z"/>
<path d="M5150 1568 c-17 -34 -36 -69 -43 -78 -11 -13 -10 -13 7 0 11 8 30 39
43 68 13 29 28 50 33 47 6 -3 7 1 4 9 -3 9 -8 16 -10 16 -2 0 -17 -28 -34 -62z"/>
<path d="M5520 1573 c-13 -32 -27 -62 -32 -67 -11 -14 -11 -33 1 -20 12 12 62
136 57 141 -2 2 -14 -22 -26 -54z"/>
<path d="M6081 1584 c-13 -50 -55 -139 -70 -148 -13 -8 -51 42 -51 66 0 11 -4
17 -9 13 -15 -8 8 -63 33 -81 20 -14 23 -13 48 17 25 30 76 164 66 175 -3 2
-11 -16 -17 -42z"/>
<path d="M6294 1569 c-10 -34 -29 -75 -43 -93 l-25 -31 27 24 c14 13 33 47 42
75 9 28 20 59 26 69 6 11 6 17 0 17 -6 0 -18 -28 -27 -61z"/>
<path d="M6785 1569 c4 -66 24 -163 32 -156 2 3 -1 24 -7 48 -6 24 -15 73 -20
109 l-9 65 4 -66z"/>
<path d="M6211 1604 c0 -11 3 -14 6 -6 3 7 2 16 -1 19 -3 4 -6 -2 -5 -13z"/>
<path d="M6592 1600 c0 -14 2 -19 5 -12 2 6 2 18 0 25 -3 6 -5 1 -5 -13z"/>
<path d="M7340 1594 c-6 -14 -10 -39 -10 -55 0 -36 -23 -84 -47 -99 -12 -8
-13 -10 -3 -7 24 6 60 67 60 103 0 18 4 44 10 58 5 14 7 26 5 26 -3 0 -10 -12
-15 -26z"/>
<path d="M5822 1590 c0 -14 2 -19 5 -12 2 6 2 18 0 25 -3 6 -5 1 -5 -13z"/>
<path d="M6327 1568 c-16 -110 -115 -258 -173 -258 -38 0 -51 9 -79 56 -14 21
-25 35 -25 30 0 -16 42 -76 60 -86 55 -29 118 12 174 114 40 71 59 132 54 166
-2 17 -6 11 -11 -22z"/>
<path d="M7696 1527 c6 -121 32 -171 111 -211 40 -20 83 -20 128 -2 37 16 75
68 74 101 -1 16 -2 15 -8 -6 -27 -88 -112 -125 -194 -83 -68 35 -93 83 -106
200 l-10 89 5 -88z"/>
<path d="M5177 1558 c-14 -69 -119 -208 -193 -255 -17 -11 -17 -12 4 -5 63 21
208 220 200 274 -3 18 -5 15 -11 -14z"/>
<path d="M6195 1537 c-9 -57 -4 -89 15 -94 13 -4 13 -3 1 5 -11 8 -13 24 -8
71 8 70 1 83 -8 18z"/>
<path d="M7047 1548 c-18 -39 -34 -96 -17 -63 5 11 15 34 22 50 11 28 12 29
16 7 2 -12 -4 -45 -13 -73 -10 -28 -15 -52 -13 -55 8 -8 38 105 36 135 -3 40
-12 39 -31 -1z"/>
<path d="M3208 1537 c-34 -72 -30 -137 8 -137 8 0 40 23 70 51 52 50 76 59 32
12 -12 -13 -19 -23 -15 -23 12 0 87 102 87 118 0 10 -31 -16 -79 -65 -43 -46
-85 -83 -94 -83 -32 0 -32 60 0 123 8 16 13 31 11 33 -3 2 -11 -11 -20 -29z
m162 -6 c-11 -21 -30 -37 -30 -25 0 8 30 44 37 44 2 0 -1 -9 -7 -19z"/>
<path d="M6602 1482 c0 -50 -5 -101 -12 -114 -11 -22 -10 -22 4 -4 16 20 20
57 17 151 -3 84 -9 62 -9 -33z"/>
<path d="M6762 1510 c-2 -65 -26 -134 -60 -175 -17 -20 -17 -20 5 -2 38 33 64
110 60 180 l-3 62 -2 -65z"/>
<path d="M7825 1506 c3 -77 18 -97 64 -95 l26 2 -27 4 c-38 6 -50 25 -59 96
l-8 62 4 -69z"/>
<path d="M2659 1428 l-74 -133 -50 -6 -50 -6 51 -1 52 -2 72 133 c40 72 75
135 77 140 2 4 2 7 0 7 -3 0 -38 -60 -78 -132z"/>
<path d="M3088 1517 c-26 -65 -31 -97 -7 -47 32 68 39 90 31 90 -4 0 -15 -19
-24 -43z"/>
<path d="M3975 1518 c-22 -23 -29 -34 -15 -23 14 11 31 28 38 38 7 9 16 17 20
17 4 0 34 -25 66 -55 33 -30 79 -64 102 -76 41 -23 41 -23 43 -82 2 -81 27
-172 61 -222 57 -83 145 -164 215 -196 64 -31 69 -31 173 -26 59 2 122 10 140
17 49 18 35 20 -28 4 -30 -8 -93 -14 -140 -14 -68 0 -95 5 -135 24 -161 76
-275 246 -275 411 l0 62 -57 36 c-32 19 -78 56 -103 81 -24 25 -49 46 -55 46
-6 0 -29 -19 -50 -42z"/>
<path d="M7243 1505 c0 -27 2 -38 4 -22 2 15 2 37 0 50 -2 12 -4 0 -4 -28z"/>
<path d="M7991 1495 c-11 -24 -33 -51 -48 -59 -16 -8 -23 -15 -17 -16 18 0 62
39 70 63 7 20 9 18 15 -13 6 -32 6 -30 8 18 0 28 -1 52 -3 52 -2 0 -13 -20
-25 -45z"/>
<path d="M1756 1474 c-35 -63 -33 -70 5 -10 17 26 28 50 26 53 -3 2 -16 -17
-31 -43z"/>
<path d="M2270 1473 c-30 -47 -51 -104 -49 -133 0 -8 7 6 14 32 7 25 21 59 32
75 27 37 45 73 38 73 -3 0 -19 -21 -35 -47z"/>
<path d="M6390 1510 c-10 -6 -4 -8 21 -4 33 6 39 3 63 -28 35 -46 35 -95 1
-108 -32 -12 -32 -16 8 -40 39 -24 47 -25 73 -5 18 14 17 15 -7 4 -21 -9 -33
-8 -59 6 l-33 17 24 12 c60 29 15 156 -56 156 -11 0 -27 -5 -35 -10z"/>
<path d="M3017 1480 c-10 -16 -14 -30 -8 -30 12 0 34 37 29 51 -2 5 -11 -4
-21 -21z"/>
<path d="M6915 1485 c8 -38 48 -80 68 -72 9 3 21 16 27 29 11 23 11 23 -8 -1
-25 -31 -44 -23 -71 31 -19 36 -22 38 -16 13z"/>
<path d="M7104 1448 c7 -29 20 -67 29 -84 19 -37 72 -84 93 -84 19 0 77 30 71
36 -2 3 -18 -3 -35 -13 -25 -14 -34 -15 -56 -5 -35 16 -84 94 -92 148 -3 25
-10 46 -14 49 -5 3 -3 -19 4 -47z"/>
<path d="M6371 1461 c-3 -93 105 -191 211 -191 31 0 104 27 96 35 -3 3 -18 -1
-34 -10 -53 -27 -129 -15 -192 32 -44 33 -62 63 -72 120 -7 42 -8 44 -9 14z"/>
<path d="M7367 1483 c-4 -3 -7 -13 -7 -22 0 -9 -12 -38 -25 -66 -13 -27 -23
-51 -21 -53 6 -5 56 105 56 123 0 9 5 13 10 10 6 -3 10 -1 10 4 0 12 -13 14
-23 4z"/>
<path d="M2485 1429 c-61 -63 -166 -138 -203 -145 -34 -7 -67 10 -55 29 3 6 1
7 -5 3 -21 -13 6 -46 36 -46 42 0 105 39 192 119 44 40 80 70 80 67 0 -2 -26
-44 -59 -93 -57 -86 -58 -88 -33 -91 13 -2 29 1 34 6 6 6 0 8 -17 4 -25 -4
-24 -1 29 81 54 82 65 107 48 107 -4 0 -26 -18 -47 -41z"/>
<path d="M3881 1423 c-24 -23 -42 -45 -40 -47 2 -2 27 18 54 45 28 27 46 48
40 47 -5 -1 -30 -21 -54 -45z"/>
<path d="M5064 1448 l-19 -23 23 19 c12 11 22 21 22 23 0 8 -8 2 -26 -19z"/>
<path d="M5166 1426 c-36 -61 -101 -133 -137 -152 -41 -21 -111 -18 -141 6
-25 19 -25 19 -64 0 -42 -22 -100 -26 -137 -9 -31 14 -77 86 -77 120 l0 28
-51 -35 c-28 -19 -62 -37 -75 -40 -17 -4 -23 -12 -20 -23 2 -9 7 -34 11 -55
10 -59 60 -151 98 -180 90 -69 160 -72 324 -15 65 23 137 47 161 55 24 7 64
32 89 54 25 22 65 53 89 69 l43 28 -20 19 c-31 28 -51 72 -58 129 l-6 50 -29
-49z"/>
<path d="M5457 1449 c-12 -14 -25 -18 -40 -14 -20 5 -20 5 -4 -5 14 -9 24 -8
43 4 13 9 24 21 24 26 0 14 -3 13 -23 -11z"/>
<path d="M3544 1437 c-71 -61 12 -155 113 -128 21 6 45 16 53 22 12 9 11 10
-5 4 -71 -26 -94 -27 -132 -9 -32 16 -39 25 -41 54 -3 28 2 39 25 57 15 13 25
23 21 23 -4 0 -19 -10 -34 -23z"/>
<path d="M5806 1433 c25 -104 117 -163 182 -117 22 15 57 72 49 80 -2 3 -10
-9 -17 -26 -17 -40 -46 -60 -88 -60 -44 0 -96 50 -111 108 -13 46 -25 59 -15
15z"/>
<path d="M7392 1373 l-2 -92 58 5 c119 10 122 11 121 47 -2 30 -2 30 -6 5 -5
-31 -17 -36 -105 -40 l-57 -3 -4 85 -3 85 -2 -92z"/>
<path d="M2932 1421 c8 -28 34 -35 78 -22 55 16 48 23 -9 8 -39 -11 -44 -10
-58 8 -8 11 -13 14 -11 6z"/>
<path d="M4651 1401 c-1 -29 34 -87 61 -102 44 -23 123 20 152 83 3 7 8 9 11
3 33 -65 42 -79 53 -81 7 -2 8 0 1 3 -6 3 -19 25 -29 49 -11 24 -24 44 -29 44
-5 0 -18 -16 -30 -35 -24 -41 -78 -70 -114 -61 -28 7 -57 46 -68 91 -6 26 -7
27 -8 6z"/>
<path d="M3773 1379 c-24 -17 -43 -32 -43 -35 0 -8 60 29 77 49 22 24 15 21
-34 -14z"/>
<path d="M6820 1392 c0 -23 53 -90 87 -109 27 -14 36 -15 56 -4 23 12 68 78
67 97 -1 5 -8 -4 -17 -21 -21 -41 -54 -75 -71 -75 -25 0 -81 49 -102 88 -10
20 -19 31 -20 24z"/>
<path d="M1894 1359 c-38 -40 -75 -59 -117 -59 -34 0 -50 17 -60 65 -4 16 -5
15 -6 -5 -2 -41 25 -70 65 -70 20 0 45 5 57 11 27 14 110 89 99 89 -5 0 -21
-14 -38 -31z"/>
<path d="M3775 1335 c-28 -18 -71 -40 -95 -48 -25 -9 -36 -16 -24 -17 25 0
109 41 149 74 41 34 30 31 -30 -9z"/>
<path d="M1931 1343 c-2 -42 9 -53 53 -53 26 0 50 8 66 21 l25 20 -33 -16
c-18 -9 -48 -15 -65 -13 -26 2 -33 8 -38 33 -5 22 -7 24 -8 8z"/>
<path d="M5575 1320 c-12 -19 -24 -70 -16 -70 4 0 12 18 18 40 10 40 10 49 -2
30z"/>
<path d="M5550 1228 c0 -15 8 -18 43 -16 40 1 40 1 7 5 -19 3 -38 10 -42 16
-5 8 -8 6 -8 -5z"/>
<path d="M5731 1194 c43 -7 100 -23 129 -34 29 -11 54 -19 57 -17 12 13 -179
67 -232 66 -16 -1 4 -7 46 -15z"/>
<path d="M5414 1191 c-5 -5 -18 -11 -29 -14 l-20 -5 20 -1 c22 -1 52 15 44 23
-3 3 -10 2 -15 -3z"/>
<path d="M5308 1153 c7 -3 16 -2 19 1 4 3 -2 6 -13 5 -11 0 -14 -3 -6 -6z"/>
<path d="M5930 1136 c0 -3 26 -19 58 -36 75 -40 154 -99 148 -109 -6 -10 44
-34 53 -26 3 3 1 9 -5 13 -5 4 -36 26 -67 50 -55 41 -169 112 -181 112 -3 0
-6 -2 -6 -4z"/>
<path d="M5265 1079 c-112 -26 -116 -28 -136 -72 -23 -52 -24 -118 -3 -163 9
-19 19 -32 22 -30 3 3 0 12 -7 19 -21 26 -24 102 -6 156 14 44 21 52 53 61 57
16 181 34 188 27 10 -9 -25 -106 -62 -174 -44 -80 -77 -107 -124 -99 -24 4
-30 3 -20 -4 45 -29 108 14 157 107 37 70 67 159 58 173 -7 12 -65 12 -120 -1z"/>
<path d="M5492 1057 c-5 -7 -19 -34 -31 -61 -11 -27 -39 -76 -61 -110 -33 -50
-35 -55 -10 -26 17 19 50 72 73 118 l43 83 60 -32 c32 -17 80 -52 106 -77 l48
-46 42 41 c24 23 54 46 68 52 18 7 20 10 7 10 -10 1 -40 -20 -68 -46 l-50 -46
-47 45 c-75 71 -162 118 -180 95z"/>
<path d="M5233 1023 c-43 -13 -54 -21 -62 -46 -14 -39 -14 -80 1 -112 24 -53
66 -22 122 92 20 40 36 75 36 78 0 9 -44 4 -97 -12z"/>
<path d="M4585 1019 c6 -9 75 -33 80 -27 2 2 -16 11 -40 19 -25 9 -42 13 -40
8z"/>
<path d="M5960 1011 c58 -5 119 -11 135 -15 29 -6 29 -6 5 5 -14 6 -74 13
-135 14 l-110 3 105 -7z"/>
<path d="M4965 975 c-44 -19 -75 -34 -69 -35 7 0 44 14 82 30 39 17 76 30 81
30 7 0 11 -25 11 -61 0 -104 64 -179 154 -179 37 0 109 30 122 51 4 6 -13 0
-38 -15 -54 -31 -110 -34 -155 -6 -49 30 -67 65 -73 144 -4 53 -9 71 -20 73
-8 1 -51 -13 -95 -32z"/>
<path d="M1957 2400 c-63 -11 -76 -23 -17 -15 l45 6 -55 -19 c-30 -10 -64 -24
-75 -31 -20 -12 -20 -12 0 -6 76 27 141 45 163 46 l27 1 -25 8 c-16 6 -2 7 38
3 43 -4 62 -2 62 6 0 13 -88 13 -163 1z"/>
<path d="M2314 2401 c3 -4 -5 -6 -17 -4 -46 9 -211 -100 -337 -221 -146 -142
-363 -386 -342 -386 4 0 42 42 83 92 99 123 295 319 394 394 106 81 225 142
150 78 l-30 -26 30 20 c42 27 101 45 125 37 31 -10 25 -59 -14 -130 -39 -68
-156 -186 -254 -255 -34 -24 -60 -46 -57 -48 9 -9 161 112 231 184 40 40 83
96 98 125 27 54 34 113 16 124 -6 4 -8 11 -5 16 4 5 -12 9 -35 9 -23 0 -39 -4
-36 -9z"/>
<path d="M1845 2370 c-13 -5 -14 -9 -5 -9 8 0 24 4 35 9 13 5 14 9 5 9 -8 0
-24 -4 -35 -9z"/>
<path d="M2421 2340 c-1 -19 -10 -54 -21 -78 -11 -23 -15 -40 -10 -37 16 10
42 92 37 121 -4 27 -4 27 -6 -6z"/>
<path d="M1736 2324 c-89 -45 -141 -82 -193 -136 -41 -42 -113 -152 -113 -172
0 -5 17 18 38 52 66 110 141 178 275 249 45 23 78 42 72 42 -5 0 -41 -15 -79
-35z"/>
<path d="M1935 2322 c-174 -59 -321 -177 -389 -312 -42 -86 -47 -133 -13 -155
47 -31 59 -25 138 70 112 134 242 267 333 342 45 37 85 70 91 75 21 19 -86 6
-160 -20z"/>
<path d="M2295 2334 c-65 -34 -222 -212 -308 -347 l-18 -28 23 12 c31 16 153
108 209 157 56 50 123 136 144 185 14 35 14 37 -2 37 -10 -1 -31 -8 -48 -16z"/>
<path d="M2135 2258 c-37 -40 -76 -86 -87 -103 -10 -16 -2 -10 19 15 21 25 62
71 92 102 30 32 52 58 48 58 -3 0 -35 -32 -72 -72z"/>
<path d="M1753 2290 c-18 -11 -33 -22 -33 -25 0 -2 16 5 35 16 19 12 35 23 35
25 0 6 -3 5 -37 -16z"/>
<path d="M1675 2237 c-57 -41 -127 -122 -166 -192 -21 -38 -39 -76 -39 -84 0
-7 16 20 37 60 27 55 58 95 119 157 46 45 82 82 81 82 -1 0 -15 -10 -32 -23z"/>
<path d="M2341 2170 c-17 -22 -28 -40 -23 -40 7 0 36 35 56 68 15 25 -1 11
-33 -28z"/>
<path d="M2008 2103 c-19 -23 -31 -43 -24 -43 2 0 14 14 26 30 23 33 22 40 -2
13z"/>
<path d="M2285 2110 c-3 -5 -2 -10 4 -10 5 0 13 5 16 10 3 6 2 10 -4 10 -5 0
-13 -4 -16 -10z"/>
<path d="M2239 2063 l-24 -28 30 25 c17 14 32 26 34 28 2 1 0 2 -6 2 -5 0 -20
-12 -34 -27z"/>
<path d="M1910 1960 c-33 -49 -60 -94 -60 -100 0 -13 21 -13 40 1 12 8 10 9
-7 4 -13 -3 -23 -4 -23 0 0 3 27 46 60 95 33 50 58 90 56 90 -3 0 -33 -40 -66
-90z"/>
<path d="M2136 1989 c-38 -27 -66 -49 -62 -49 10 0 123 78 131 90 9 14 8 14
-69 -41z"/>
<path d="M1416 1978 c-11 -42 -6 -93 13 -128 21 -41 90 -81 135 -79 26 1 25 2
-13 10 -56 11 -83 29 -111 74 -19 30 -22 46 -17 91 6 57 3 69 -7 32z"/>
<path d="M1463 1905 c0 -22 2 -30 4 -17 2 12 2 30 0 40 -3 9 -5 -1 -4 -23z"/>
<path d="M1965 1910 c-27 -17 -44 -30 -36 -30 24 0 -18 -27 -69 -45 -33 -11
-53 -27 -74 -58 l-28 -42 33 37 c20 21 66 51 112 72 79 37 94 48 55 39 -22 -4
-22 -3 2 11 30 18 44 20 34 5 -3 -6 8 -3 25 5 17 9 31 19 31 22 0 2 -9 0 -19
-6 -29 -15 -39 -12 -17 5 33 25 4 16 -49 -15z"/>
<path d="M1480 1840 c6 -11 13 -20 16 -20 2 0 0 9 -6 20 -6 11 -13 20 -16 20
-2 0 0 -9 6 -20z"/>
<path d="M1516 1810 c6 -6 28 -13 50 -15 21 -2 30 -2 19 1 -11 3 -33 10 -50
15 -21 7 -26 6 -19 -1z"/>
<path d="M1502 1652 c-128 -153 -252 -265 -357 -320 -22 -12 -36 -21 -32 -22
19 -1 111 54 164 98 98 82 222 213 297 315 55 72 17 36 -72 -71z"/>
<path d="M1688 1660 c-109 -122 -253 -235 -389 -306 -52 -27 -65 -39 -26 -25
88 34 289 183 387 288 79 84 104 113 98 113 -4 0 -35 -32 -70 -70z"/>
<path d="M1012 1649 c-83 -41 -173 -177 -171 -256 l2 -38 6 45 c20 130 151
266 249 258 32 -3 37 -7 40 -31 5 -40 -34 -96 -82 -118 -30 -13 -35 -19 -19
-19 26 0 79 43 98 81 18 34 19 71 3 87 -19 19 -79 14 -126 -9z"/>
<path d="M945 1473 c-30 -16 -54 -41 -55 -56 0 -4 10 4 23 18 12 14 40 32 62
40 22 8 31 14 20 14 -11 0 -33 -7 -50 -16z"/>
<path d="M881 1385 c-1 -30 27 -65 65 -81 36 -15 107 -17 139 -5 12 5 -7 7
-45 4 -83 -5 -129 16 -147 67 -8 22 -12 28 -12 15z"/>
<path d="M850 1344 c0 -16 41 -51 73 -63 63 -24 248 -7 303 28 18 12 18 12 -1
6 -70 -24 -130 -35 -198 -35 -86 0 -136 16 -161 51 -9 13 -16 19 -16 13z"/>
</g>
</svg>
