<svg xmlns="http://www.w3.org/2000/svg" xmlns:xlink="http://www.w3.org/1999/xlink" width="1920" zoomAndPan="magnify" viewBox="0 0 1440 809.999993" height="1080" preserveAspectRatio="xMidYMid meet" version="1.0"><defs><filter x="0%" y="0%" width="100%" height="100%" id="468bbd58fa"><feColorMatrix values="0 0 0 0 1 0 0 0 0 1 0 0 0 0 1 0 0 0 1 0" color-interpolation-filters="sRGB"/></filter><linearGradient x1="0" gradientTransform="matrix(0.75, 0, 0, 0.75, 0.00000622222, 0.00002)" y1="540" x2="1919.99992" gradientUnits="userSpaceOnUse" y2="540" id="2ca3f91b3b"><stop stop-opacity="1" stop-color="rgb(100%, 74.508667%, 3.919983%)" offset="0"/><stop stop-opacity="1" stop-color="rgb(100%, 74.440002%, 4.022217%)" offset="0.0078125"/><stop stop-opacity="1" stop-color="rgb(100%, 74.302673%, 4.226685%)" offset="0.015625"/><stop stop-opacity="1" stop-color="rgb(100%, 74.163818%, 4.432678%)" offset="0.0234375"/><stop stop-opacity="1" stop-color="rgb(100%, 74.026489%, 4.637146%)" offset="0.03125"/><stop stop-opacity="1" stop-color="rgb(100%, 73.88916%, 4.84314%)" offset="0.0390625"/><stop stop-opacity="1" stop-color="rgb(100%, 73.750305%, 5.047607%)" offset="0.046875"/><stop stop-opacity="1" stop-color="rgb(100%, 73.612976%, 5.253601%)" offset="0.0546875"/><stop stop-opacity="1" stop-color="rgb(100%, 73.474121%, 5.458069%)" offset="0.0625"/><stop stop-opacity="1" stop-color="rgb(100%, 73.336792%, 5.664062%)" offset="0.0703125"/><stop stop-opacity="1" stop-color="rgb(100%, 73.199463%, 5.86853%)" offset="0.078125"/><stop stop-opacity="1" stop-color="rgb(100%, 73.060608%, 6.074524%)" offset="0.0859375"/><stop stop-opacity="1" stop-color="rgb(100%, 72.923279%, 6.280518%)" offset="0.09375"/><stop stop-opacity="1" stop-color="rgb(100%, 72.78595%, 6.484985%)" offset="0.101562"/><stop stop-opacity="1" stop-color="rgb(100%, 72.647095%, 6.690979%)" offset="0.109375"/><stop stop-opacity="1" stop-color="rgb(100%, 72.509766%, 6.895447%)" offset="0.117188"/><stop stop-opacity="1" stop-color="rgb(100%, 72.370911%, 7.10144%)" offset="0.125"/><stop stop-opacity="1" stop-color="rgb(100%, 72.233582%, 7.305908%)" offset="0.132812"/><stop stop-opacity="1" stop-color="rgb(100%, 72.096252%, 7.511902%)" offset="0.140625"/><stop stop-opacity="1" stop-color="rgb(100%, 71.957397%, 7.71637%)" offset="0.148438"/><stop stop-opacity="1" stop-color="rgb(100%, 71.820068%, 7.922363%)" offset="0.15625"/><stop stop-opacity="1" stop-color="rgb(100%, 71.682739%, 8.128357%)" offset="0.164062"/><stop stop-opacity="1" stop-color="rgb(100%, 71.543884%, 8.332825%)" offset="0.171875"/><stop stop-opacity="1" stop-color="rgb(100%, 71.406555%, 8.538818%)" offset="0.179688"/><stop stop-opacity="1" stop-color="rgb(100%, 71.269226%, 8.743286%)" offset="0.1875"/><stop stop-opacity="1" stop-color="rgb(100%, 71.130371%, 8.94928%)" offset="0.195312"/><stop stop-opacity="1" stop-color="rgb(100%, 70.993042%, 9.153748%)" offset="0.203125"/><stop stop-opacity="1" stop-color="rgb(100%, 70.854187%, 9.359741%)" offset="0.210938"/><stop stop-opacity="1" stop-color="rgb(100%, 70.716858%, 9.564209%)" offset="0.21875"/><stop stop-opacity="1" stop-color="rgb(100%, 70.579529%, 9.770203%)" offset="0.226562"/><stop stop-opacity="1" stop-color="rgb(100%, 70.440674%, 9.976196%)" offset="0.234375"/><stop stop-opacity="1" stop-color="rgb(100%, 70.303345%, 10.180664%)" offset="0.242188"/><stop stop-opacity="1" stop-color="rgb(100%, 70.166016%, 10.386658%)" offset="0.25"/><stop stop-opacity="1" stop-color="rgb(100%, 70.027161%, 10.591125%)" offset="0.257812"/><stop stop-opacity="1" stop-color="rgb(100%, 69.889832%, 10.797119%)" offset="0.265625"/><stop stop-opacity="1" stop-color="rgb(100%, 69.750977%, 11.001587%)" offset="0.273438"/><stop stop-opacity="1" stop-color="rgb(100%, 69.613647%, 11.207581%)" offset="0.28125"/><stop stop-opacity="1" stop-color="rgb(100%, 69.476318%, 11.412048%)" offset="0.289062"/><stop stop-opacity="1" stop-color="rgb(100%, 69.337463%, 11.618042%)" offset="0.296875"/><stop stop-opacity="1" stop-color="rgb(100%, 69.200134%, 11.824036%)" offset="0.304688"/><stop stop-opacity="1" stop-color="rgb(100%, 69.062805%, 12.028503%)" offset="0.3125"/><stop stop-opacity="1" stop-color="rgb(100%, 68.92395%, 12.234497%)" offset="0.320312"/><stop stop-opacity="1" stop-color="rgb(100%, 68.786621%, 12.438965%)" offset="0.328125"/><stop stop-opacity="1" stop-color="rgb(100%, 68.649292%, 12.644958%)" offset="0.335938"/><stop stop-opacity="1" stop-color="rgb(100%, 68.510437%, 12.849426%)" offset="0.34375"/><stop stop-opacity="1" stop-color="rgb(100%, 68.373108%, 13.05542%)" offset="0.351562"/><stop stop-opacity="1" stop-color="rgb(100%, 68.234253%, 13.259888%)" offset="0.359375"/><stop stop-opacity="1" stop-color="rgb(100%, 68.096924%, 13.465881%)" offset="0.367188"/><stop stop-opacity="1" stop-color="rgb(100%, 67.959595%, 13.671875%)" offset="0.375"/><stop stop-opacity="1" stop-color="rgb(100%, 67.82074%, 13.876343%)" offset="0.382812"/><stop stop-opacity="1" stop-color="rgb(100%, 67.683411%, 14.082336%)" offset="0.390625"/><stop stop-opacity="1" stop-color="rgb(100%, 67.546082%, 14.286804%)" offset="0.398438"/><stop stop-opacity="1" stop-color="rgb(100%, 67.407227%, 14.492798%)" offset="0.40625"/><stop stop-opacity="1" stop-color="rgb(100%, 67.269897%, 14.697266%)" offset="0.414062"/><stop stop-opacity="1" stop-color="rgb(100%, 67.132568%, 14.903259%)" offset="0.421875"/><stop stop-opacity="1" stop-color="rgb(100%, 66.993713%, 15.107727%)" offset="0.429688"/><stop stop-opacity="1" stop-color="rgb(100%, 66.856384%, 15.313721%)" offset="0.4375"/><stop stop-opacity="1" stop-color="rgb(100%, 66.717529%, 15.519714%)" offset="0.445312"/><stop stop-opacity="1" stop-color="rgb(100%, 66.5802%, 15.724182%)" offset="0.453125"/><stop stop-opacity="1" stop-color="rgb(100%, 66.442871%, 15.930176%)" offset="0.460938"/><stop stop-opacity="1" stop-color="rgb(100%, 66.304016%, 16.134644%)" offset="0.46875"/><stop stop-opacity="1" stop-color="rgb(100%, 66.166687%, 16.340637%)" offset="0.476562"/><stop stop-opacity="1" stop-color="rgb(100%, 66.029358%, 16.545105%)" offset="0.484375"/><stop stop-opacity="1" stop-color="rgb(100%, 65.890503%, 16.751099%)" offset="0.492188"/><stop stop-opacity="1" stop-color="rgb(100%, 65.753174%, 16.955566%)" offset="0.5"/><stop stop-opacity="1" stop-color="rgb(100%, 65.614319%, 17.16156%)" offset="0.507812"/><stop stop-opacity="1" stop-color="rgb(100%, 65.47699%, 17.366028%)" offset="0.515625"/><stop stop-opacity="1" stop-color="rgb(100%, 65.339661%, 17.572021%)" offset="0.523438"/><stop stop-opacity="1" stop-color="rgb(100%, 65.200806%, 17.778015%)" offset="0.53125"/><stop stop-opacity="1" stop-color="rgb(100%, 65.063477%, 17.982483%)" offset="0.539062"/><stop stop-opacity="1" stop-color="rgb(100%, 64.926147%, 18.188477%)" offset="0.546875"/><stop stop-opacity="1" stop-color="rgb(100%, 64.787292%, 18.392944%)" offset="0.554688"/><stop stop-opacity="1" stop-color="rgb(100%, 64.649963%, 18.598938%)" offset="0.5625"/><stop stop-opacity="1" stop-color="rgb(100%, 64.512634%, 18.803406%)" offset="0.570312"/><stop stop-opacity="1" stop-color="rgb(100%, 64.373779%, 19.009399%)" offset="0.578125"/><stop stop-opacity="1" stop-color="rgb(100%, 64.23645%, 19.213867%)" offset="0.585938"/><stop stop-opacity="1" stop-color="rgb(100%, 64.097595%, 19.419861%)" offset="0.59375"/><stop stop-opacity="1" stop-color="rgb(100%, 63.960266%, 19.625854%)" offset="0.601562"/><stop stop-opacity="1" stop-color="rgb(100%, 63.822937%, 19.830322%)" offset="0.609375"/><stop stop-opacity="1" stop-color="rgb(100%, 63.684082%, 20.036316%)" offset="0.617188"/><stop stop-opacity="1" stop-color="rgb(100%, 63.546753%, 20.240784%)" offset="0.625"/><stop stop-opacity="1" stop-color="rgb(100%, 63.409424%, 20.446777%)" offset="0.632812"/><stop stop-opacity="1" stop-color="rgb(100%, 63.270569%, 20.651245%)" offset="0.640625"/><stop stop-opacity="1" stop-color="rgb(100%, 63.13324%, 20.857239%)" offset="0.648438"/><stop stop-opacity="1" stop-color="rgb(100%, 62.994385%, 21.061707%)" offset="0.65625"/><stop stop-opacity="1" stop-color="rgb(100%, 62.857056%, 21.2677%)" offset="0.664062"/><stop stop-opacity="1" stop-color="rgb(100%, 62.719727%, 21.473694%)" offset="0.671875"/><stop stop-opacity="1" stop-color="rgb(100%, 62.580872%, 21.678162%)" offset="0.679688"/><stop stop-opacity="1" stop-color="rgb(100%, 62.443542%, 21.884155%)" offset="0.6875"/><stop stop-opacity="1" stop-color="rgb(100%, 62.306213%, 22.088623%)" offset="0.695312"/><stop stop-opacity="1" stop-color="rgb(100%, 62.167358%, 22.294617%)" offset="0.703125"/><stop stop-opacity="1" stop-color="rgb(100%, 62.030029%, 22.499084%)" offset="0.710938"/><stop stop-opacity="1" stop-color="rgb(100%, 61.8927%, 22.705078%)" offset="0.71875"/><stop stop-opacity="1" stop-color="rgb(100%, 61.753845%, 22.909546%)" offset="0.726562"/><stop stop-opacity="1" stop-color="rgb(100%, 61.616516%, 23.11554%)" offset="0.734375"/><stop stop-opacity="1" stop-color="rgb(100%, 61.477661%, 23.321533%)" offset="0.742188"/><stop stop-opacity="1" stop-color="rgb(100%, 61.340332%, 23.526001%)" offset="0.75"/><stop stop-opacity="1" stop-color="rgb(100%, 61.203003%, 23.731995%)" offset="0.757812"/><stop stop-opacity="1" stop-color="rgb(100%, 61.064148%, 23.936462%)" offset="0.765625"/><stop stop-opacity="1" stop-color="rgb(100%, 60.926819%, 24.142456%)" offset="0.773438"/><stop stop-opacity="1" stop-color="rgb(100%, 60.78949%, 24.346924%)" offset="0.78125"/><stop stop-opacity="1" stop-color="rgb(100%, 60.650635%, 24.552917%)" offset="0.789062"/><stop stop-opacity="1" stop-color="rgb(100%, 60.513306%, 24.757385%)" offset="0.796875"/><stop stop-opacity="1" stop-color="rgb(100%, 60.374451%, 24.963379%)" offset="0.804688"/><stop stop-opacity="1" stop-color="rgb(100%, 60.237122%, 25.169373%)" offset="0.8125"/><stop stop-opacity="1" stop-color="rgb(100%, 60.099792%, 25.37384%)" offset="0.820312"/><stop stop-opacity="1" stop-color="rgb(100%, 59.960938%, 25.579834%)" offset="0.828125"/><stop stop-opacity="1" stop-color="rgb(100%, 59.823608%, 25.784302%)" offset="0.835938"/><stop stop-opacity="1" stop-color="rgb(100%, 59.686279%, 25.990295%)" offset="0.84375"/><stop stop-opacity="1" stop-color="rgb(100%, 59.547424%, 26.194763%)" offset="0.851562"/><stop stop-opacity="1" stop-color="rgb(100%, 59.410095%, 26.400757%)" offset="0.859375"/><stop stop-opacity="1" stop-color="rgb(100%, 59.272766%, 26.605225%)" offset="0.867188"/><stop stop-opacity="1" stop-color="rgb(100%, 59.133911%, 26.811218%)" offset="0.875"/><stop stop-opacity="1" stop-color="rgb(100%, 58.996582%, 27.017212%)" offset="0.882812"/><stop stop-opacity="1" stop-color="rgb(100%, 58.857727%, 27.22168%)" offset="0.890625"/><stop stop-opacity="1" stop-color="rgb(100%, 58.720398%, 27.427673%)" offset="0.898438"/><stop stop-opacity="1" stop-color="rgb(100%, 58.583069%, 27.632141%)" offset="0.90625"/><stop stop-opacity="1" stop-color="rgb(100%, 58.444214%, 27.838135%)" offset="0.914062"/><stop stop-opacity="1" stop-color="rgb(100%, 58.306885%, 28.042603%)" offset="0.921875"/><stop stop-opacity="1" stop-color="rgb(100%, 58.169556%, 28.248596%)" offset="0.929688"/><stop stop-opacity="1" stop-color="rgb(100%, 58.030701%, 28.453064%)" offset="0.9375"/><stop stop-opacity="1" stop-color="rgb(100%, 57.893372%, 28.659058%)" offset="0.945312"/><stop stop-opacity="1" stop-color="rgb(100%, 57.754517%, 28.863525%)" offset="0.953125"/><stop stop-opacity="1" stop-color="rgb(100%, 57.617188%, 29.069519%)" offset="0.960938"/><stop stop-opacity="1" stop-color="rgb(100%, 57.479858%, 29.275513%)" offset="0.96875"/><stop stop-opacity="1" stop-color="rgb(100%, 57.341003%, 29.47998%)" offset="0.976562"/><stop stop-opacity="1" stop-color="rgb(100%, 57.203674%, 29.685974%)" offset="0.984375"/><stop stop-opacity="1" stop-color="rgb(100%, 57.066345%, 29.890442%)" offset="0.992188"/><stop stop-opacity="1" stop-color="rgb(100%, 56.92749%, 30.096436%)" offset="1"/></linearGradient><mask id="754a290ceb"><g filter="url(#468bbd58fa)"><rect x="-144" width="1728" fill="#000000" y="-80.999999" height="971.999992" fill-opacity="0.25"/></g></mask><clipPath id="9c02ddfee2"><path d="M 81 6 L 228 6 L 228 297 L 81 297 Z M 81 6 " clip-rule="nonzero"/></clipPath><clipPath id="1b29d8e07b"><path d="M 192.292969 0.519531 L 292.152344 212.140625 L 100.875 302.398438 L 1.019531 90.773438 Z M 192.292969 0.519531 " clip-rule="nonzero"/></clipPath><clipPath id="5e1eeaf1a4"><path d="M 192.292969 0.519531 L 292.152344 212.140625 L 100.875 302.398438 L 1.019531 90.773438 Z M 192.292969 0.519531 " clip-rule="nonzero"/></clipPath><clipPath id="ef9d9f159f"><path d="M 192.292969 0.519531 L 292.152344 212.140625 L 100.875 302.398438 L 1.019531 90.773438 Z M 192.292969 0.519531 " clip-rule="nonzero"/></clipPath><clipPath id="dfe917552a"><rect x="0" width="293" y="0" height="304"/></clipPath><clipPath id="7f358d1f21"><path d="M 971 259 L 1118 259 L 1118 551 L 971 551 Z M 971 259 " clip-rule="nonzero"/></clipPath><clipPath id="42fb79695c"><path d="M 1082.292969 254.019531 L 1182.152344 465.640625 L 990.875 555.898438 L 891.019531 344.273438 Z M 1082.292969 254.019531 " clip-rule="nonzero"/></clipPath><clipPath id="09aeffdeb6"><path d="M 1082.292969 254.019531 L 1182.152344 465.640625 L 990.875 555.898438 L 891.019531 344.273438 Z M 1082.292969 254.019531 " clip-rule="nonzero"/></clipPath><mask id="5465caed3a"><g filter="url(#468bbd58fa)"><rect x="-144" width="1728" fill="#000000" y="-80.999999" height="971.999992" fill-opacity="0.25"/></g></mask><clipPath id="af50681299"><path d="M 65 6 L 212 6 L 212 297 L 65 297 Z M 65 6 " clip-rule="nonzero"/></clipPath><clipPath id="755d0d7fee"><path d="M 99.46875 302.316406 L 1.140625 89.976562 L 193.0625 1.105469 L 291.390625 213.445312 Z M 99.46875 302.316406 " clip-rule="nonzero"/></clipPath><clipPath id="ecfa4a0be7"><path d="M 99.46875 302.316406 L 1.140625 89.976562 L 193.0625 1.105469 L 291.390625 213.445312 Z M 99.46875 302.316406 " clip-rule="nonzero"/></clipPath><clipPath id="4c4ea06284"><path d="M 99.46875 302.316406 L 1.140625 89.976562 L 193.0625 1.105469 L 291.390625 213.445312 Z M 99.46875 302.316406 " clip-rule="nonzero"/></clipPath><clipPath id="2af8399a64"><rect x="0" width="292" y="0" height="303"/></clipPath><clipPath id="3f25b90e21"><path d="M 324 275 L 471 275 L 471 566 L 324 566 Z M 324 275 " clip-rule="nonzero"/></clipPath><clipPath id="35859c4085"><path d="M 358.71875 570.816406 L 260.390625 358.476562 L 452.3125 269.605469 L 550.640625 481.945312 Z M 358.71875 570.816406 " clip-rule="nonzero"/></clipPath><clipPath id="fa1193d037"><path d="M 358.71875 570.816406 L 260.390625 358.476562 L 452.3125 269.605469 L 550.640625 481.945312 Z M 358.71875 570.816406 " clip-rule="nonzero"/></clipPath></defs><rect x="-144" width="1728" fill="#ffffff" y="-80.999999" height="971.999992" fill-opacity="1"/><rect x="-144" fill="url(#2ca3f91b3b)" width="1728" y="-80.999999" height="971.999992"/><g mask="url(#754a290ceb)"><g transform="matrix(1, 0, 0, 1, 890, 258)"><g clip-path="url(#dfe917552a)"><g clip-path="url(#9c02ddfee2)"><g clip-path="url(#1b29d8e07b)"><g clip-path="url(#5e1eeaf1a4)"><g clip-path="url(#ef9d9f159f)"><path fill="#000000" d="M 104.429688 100.199219 C 99.238281 104.0625 92.691406 103.808594 88.167969 98.976562 C 83.570312 94.078125 85.289062 87.109375 89.398438 82.726562 C 90.4375 81.59375 91.472656 80.460938 92.542969 79.386719 L 93.332031 78.550781 C 92.035156 80.019531 92.546875 79.449219 94.871094 76.839844 C 96.609375 75.070312 98.441406 73.414062 100.226562 71.710938 C 103.808594 68.304688 107.445312 64.953125 111.128906 61.65625 C 118.476562 55.058594 126.097656 48.753906 133.730469 42.488281 C 141.507812 36.089844 149.363281 29.789062 157.292969 23.585938 C 161.179688 20.542969 165.121094 17.558594 169.066406 14.597656 C 170.898438 13.226562 172.726562 11.863281 174.558594 10.503906 C 179.734375 6.6875 183.949219 4.925781 190.4375 6.84375 C 196.074219 8.519531 198.808594 14.464844 198.765625 19.859375 C 198.710938 27.777344 191.410156 31.6875 185.894531 35.894531 C 181.957031 38.882812 178.039062 41.894531 174.113281 44.890625 C 166.265625 50.898438 158.488281 56.988281 150.789062 63.167969 C 135.378906 75.535156 120.3125 88.371094 104.445312 100.191406 Z M 131.03125 147.292969 C 141.367188 144.824219 151.625 141.828125 161.734375 138.589844 C 166.46875 137.066406 171.253906 135.652344 175.953125 134.03125 C 180.941406 132.320312 186.8125 129.960938 190.46875 126.0625 C 193.464844 122.859375 195.03125 119.109375 193.625 114.691406 C 192.238281 110.382812 188.785156 107.976562 184.414062 107.199219 C 178.382812 106.152344 171.617188 108.253906 165.949219 110.164062 C 161.246094 111.742188 156.585938 113.445312 151.90625 115.082031 C 142.574219 118.351562 133.3125 121.925781 124.273438 125.910156 C 119.105469 128.175781 116.753906 134.347656 118.390625 139.527344 C 119.988281 144.558594 125.527344 148.605469 131.03125 147.292969 Z M 122.996094 208.132812 L 125.398438 209.042969 C 125.816406 209.203125 127.746094 210.152344 126.253906 209.3125 C 128.066406 210.441406 129.941406 211.449219 131.878906 212.339844 C 135.066406 213.640625 138.289062 214.914062 141.5 216.113281 C 147.640625 218.402344 153.835938 220.574219 159.96875 222.875 C 172.386719 227.546875 184.695312 232.738281 196.726562 238.339844 C 199.539062 239.648438 202.332031 241.019531 205.125 242.375 C 207.378906 243.464844 209.855469 244.699219 212.394531 244.8125 C 214.472656 244.90625 216.492188 244.609375 218.457031 243.921875 C 220.421875 243.230469 222.183594 242.199219 223.746094 240.824219 C 230.453125 235.011719 228.050781 224.125 221.5625 219.320312 C 218.167969 216.808594 213.882812 215.230469 210.070312 213.425781 C 198.0625 207.699219 185.738281 202.757812 173.097656 198.605469 C 165.324219 196.007812 157.433594 193.816406 149.433594 192.027344 C 145.757812 191.230469 142.074219 190.699219 138.363281 190.0625 C 137.703125 189.949219 137.011719 189.789062 136.351562 189.726562 C 135.519531 189.667969 134.683594 189.679688 133.855469 189.757812 C 132.085938 189.792969 131.886719 189.824219 133.253906 189.851562 C 131.203125 189.820312 129.160156 189.667969 127.128906 189.386719 C 116.0625 188.226562 112.773438 204.292969 122.992188 208.140625 Z M 81.902344 249.375 C 82.632812 252.464844 83.160156 255.5 84.015625 258.554688 C 85.117188 262.46875 86.128906 266.382812 87.472656 270.226562 C 89.554688 276.210938 91.574219 282.632812 94.65625 288.175781 C 98.195312 294.617188 105.109375 298.058594 112.320312 295.769531 C 118.554688 293.792969 124.558594 286.367188 122.417969 279.390625 C 120.246094 272.304688 117.070312 265.695312 113.839844 259.042969 C 112.5 256.285156 110.933594 253.738281 109.363281 251.109375 C 108.296875 249.3125 107.359375 247.453125 106.21875 245.691406 C 105.886719 245.007812 105.457031 244.398438 104.925781 243.851562 C 104.484375 243.296875 104.441406 243.316406 104.804688 243.910156 C 105.171875 244.503906 105.128906 244.515625 104.742188 243.882812 L 103.820312 242.433594 C 100.6875 237.515625 95.839844 234.554688 89.882812 236.445312 C 84.710938 238.089844 80.59375 243.738281 81.921875 249.367188 Z M 81.902344 249.375 " fill-opacity="1" fill-rule="nonzero"/></g></g></g></g></g></g></g><g clip-path="url(#7f358d1f21)"><g clip-path="url(#42fb79695c)"><g clip-path="url(#09aeffdeb6)"><path fill="#ffffff" d="M 994.539062 353.6875 C 989.347656 357.550781 982.808594 357.292969 978.28125 352.457031 C 973.683594 347.550781 975.398438 340.582031 979.503906 336.199219 C 980.539062 335.066406 981.578125 333.933594 982.644531 332.859375 L 983.433594 332.023438 C 982.136719 333.492188 982.648438 332.921875 984.96875 330.316406 C 986.707031 328.542969 988.535156 326.890625 990.316406 325.1875 C 993.898438 321.78125 997.53125 318.429688 1001.210938 315.132812 C 1008.550781 308.535156 1016.164062 302.238281 1023.785156 295.96875 C 1031.558594 289.574219 1039.402344 283.277344 1047.324219 277.074219 C 1051.210938 274.03125 1055.144531 271.046875 1059.089844 268.089844 C 1060.917969 266.71875 1062.746094 265.355469 1064.574219 263.996094 C 1069.746094 260.183594 1073.957031 258.421875 1080.441406 260.347656 C 1086.078125 262.023438 1088.8125 267.972656 1088.773438 273.371094 C 1088.722656 281.292969 1081.425781 285.199219 1075.917969 289.40625 C 1071.984375 292.394531 1068.074219 295.402344 1064.148438 298.402344 C 1056.308594 304.402344 1048.542969 310.492188 1040.847656 316.667969 C 1025.457031 329.03125 1010.402344 341.867188 994.554688 353.679688 Z M 1021.148438 400.816406 C 1031.480469 398.355469 1041.730469 395.363281 1051.832031 392.128906 C 1056.566406 390.609375 1061.34375 389.195312 1066.042969 387.578125 C 1071.023438 385.871094 1076.890625 383.515625 1080.546875 379.617188 C 1083.535156 376.410156 1085.097656 372.664062 1083.691406 368.238281 C 1082.300781 363.929688 1078.847656 361.519531 1074.480469 360.738281 C 1068.453125 359.691406 1061.695312 361.789062 1056.027344 363.695312 C 1051.328125 365.269531 1046.671875 366.972656 1041.996094 368.605469 C 1032.671875 371.871094 1023.417969 375.441406 1014.386719 379.421875 C 1009.222656 381.683594 1006.875 387.859375 1008.515625 393.042969 C 1010.113281 398.078125 1015.652344 402.125 1021.148438 400.816406 Z M 1013.15625 461.679688 L 1015.558594 462.589844 C 1015.976562 462.753906 1017.90625 463.703125 1016.414062 462.863281 C 1018.226562 463.992188 1020.101562 465 1022.039062 465.894531 C 1025.226562 467.195312 1028.445312 468.472656 1031.65625 469.671875 C 1037.792969 471.96875 1043.988281 474.144531 1050.117188 476.449219 C 1062.535156 481.132812 1074.835938 486.332031 1086.867188 491.945312 C 1089.679688 493.253906 1092.46875 494.625 1095.261719 495.984375 C 1097.515625 497.074219 1099.988281 498.3125 1102.527344 498.425781 C 1104.605469 498.523438 1106.625 498.226562 1108.585938 497.539062 C 1110.546875 496.851562 1112.308594 495.820312 1113.871094 494.445312 C 1120.570312 488.632812 1118.164062 477.742188 1111.675781 472.929688 C 1108.28125 470.414062 1104 468.835938 1100.1875 467.023438 C 1088.183594 461.289062 1075.863281 456.339844 1063.226562 452.175781 C 1055.453125 449.574219 1047.570312 447.375 1039.570312 445.582031 C 1035.894531 444.78125 1032.214844 444.25 1028.503906 443.613281 C 1027.847656 443.5 1027.152344 443.335938 1026.492188 443.273438 C 1025.660156 443.214844 1024.828125 443.226562 1023.996094 443.300781 C 1022.230469 443.335938 1022.03125 443.371094 1023.398438 443.398438 C 1021.347656 443.367188 1019.308594 443.210938 1017.273438 442.929688 C 1006.214844 441.761719 1002.9375 457.832031 1013.152344 461.6875 Z M 972.109375 502.917969 C 972.839844 506.007812 973.371094 509.042969 974.230469 512.097656 C 975.332031 516.015625 976.34375 519.929688 977.691406 523.777344 C 979.773438 529.765625 981.796875 536.191406 984.878906 541.742188 C 988.421875 548.1875 995.335938 551.632812 1002.539062 549.34375 C 1008.765625 547.371094 1014.765625 539.949219 1012.621094 532.964844 C 1010.445312 525.875 1007.269531 519.265625 1004.035156 512.605469 C 1002.695312 509.84375 1001.125 507.296875 999.558594 504.667969 C 998.488281 502.871094 997.554688 501.007812 996.414062 499.242188 C 996.078125 498.5625 995.648438 497.949219 995.121094 497.402344 C 994.675781 496.847656 994.636719 496.867188 995 497.460938 C 995.363281 498.054688 995.324219 498.066406 994.933594 497.433594 L 994.011719 495.984375 C 990.878906 491.0625 986.03125 488.09375 980.078125 489.984375 C 974.910156 491.625 970.800781 497.277344 972.128906 502.90625 Z M 972.109375 502.917969 " fill-opacity="1" fill-rule="nonzero"/></g></g></g><g mask="url(#5465caed3a)"><g transform="matrix(1, 0, 0, 1, 260, 273)"><g clip-path="url(#2af8399a64)"><g clip-path="url(#af50681299)"><g clip-path="url(#755d0d7fee)"><g clip-path="url(#ecfa4a0be7)"><g clip-path="url(#4c4ea06284)"><path fill="#000000" d="M 188.050781 203.273438 C 193.269531 199.445312 199.8125 199.75 204.304688 204.613281 C 208.867188 209.546875 207.097656 216.503906 202.953125 220.855469 C 201.90625 221.980469 200.863281 223.105469 199.785156 224.171875 L 198.988281 225.003906 C 200.296875 223.542969 199.78125 224.109375 197.441406 226.699219 C 195.6875 228.457031 193.84375 230.101562 192.046875 231.792969 C 188.4375 235.171875 184.78125 238.496094 181.070312 241.769531 C 173.675781 248.3125 166.011719 254.558594 158.332031 260.773438 C 150.507812 267.113281 142.609375 273.355469 134.636719 279.503906 C 130.726562 282.519531 126.761719 285.472656 122.796875 288.40625 C 120.957031 289.761719 119.117188 291.113281 117.277344 292.460938 C 112.070312 296.238281 107.84375 297.96875 101.371094 296.003906 C 95.746094 294.289062 93.054688 288.324219 93.136719 282.929688 C 93.246094 275.011719 100.578125 271.15625 106.121094 266.988281 C 110.082031 264.027344 114.019531 261.042969 117.96875 258.074219 C 125.859375 252.128906 133.679688 246.089844 141.425781 239.96875 C 156.921875 227.710938 172.082031 214.984375 188.035156 203.28125 Z M 161.789062 155.988281 C 151.433594 158.382812 141.15625 161.304688 131.023438 164.46875 C 126.277344 165.957031 121.484375 167.339844 116.769531 168.925781 C 111.773438 170.597656 105.882812 172.914062 102.199219 176.789062 C 99.183594 179.972656 97.589844 183.707031 98.960938 188.136719 C 100.316406 192.453125 103.753906 194.886719 108.117188 195.695312 C 114.140625 196.785156 120.921875 194.734375 126.605469 192.863281 C 131.320312 191.320312 135.992188 189.648438 140.683594 188.046875 C 150.035156 184.84375 159.324219 181.335938 168.390625 177.421875 C 173.578125 175.191406 175.972656 169.035156 174.371094 163.84375 C 172.8125 158.800781 167.304688 154.71875 161.789062 155.988281 Z M 170.265625 95.207031 L 167.867188 94.28125 C 167.449219 94.117188 165.527344 93.152344 167.011719 94.003906 C 165.210938 92.863281 163.339844 91.839844 161.410156 90.9375 C 158.230469 89.613281 155.019531 88.316406 151.816406 87.09375 C 145.691406 84.761719 139.515625 82.542969 133.398438 80.199219 C 121.011719 75.4375 108.746094 70.15625 96.75 64.46875 C 93.949219 63.140625 91.167969 61.75 88.382812 60.375 C 86.136719 59.269531 83.671875 58.015625 81.132812 57.882812 C 79.054688 57.773438 77.03125 58.054688 75.0625 58.730469 C 73.09375 59.40625 71.324219 60.425781 69.75 61.789062 C 63.003906 67.554688 65.324219 78.457031 71.78125 83.308594 C 75.15625 85.84375 79.429688 87.453125 83.230469 89.285156 C 95.195312 95.101562 107.480469 100.128906 120.09375 104.375 C 127.847656 107.027344 135.722656 109.277344 143.710938 111.125 C 147.382812 111.945312 151.058594 112.503906 154.765625 113.164062 C 155.421875 113.285156 156.117188 113.449219 156.777344 113.515625 C 157.609375 113.578125 158.441406 113.578125 159.273438 113.503906 C 161.042969 113.480469 161.242188 113.449219 159.871094 113.414062 C 161.925781 113.457031 163.964844 113.628906 165.996094 113.921875 C 177.054688 115.164062 180.457031 99.121094 170.265625 95.199219 Z M 211.65625 54.261719 C 210.945312 51.167969 210.4375 48.128906 209.605469 45.070312 C 208.53125 41.148438 207.550781 37.226562 206.234375 33.371094 C 204.195312 27.371094 202.222656 20.9375 199.183594 15.371094 C 195.6875 8.90625 188.796875 5.414062 181.570312 7.652344 C 175.324219 9.582031 169.265625 16.964844 171.355469 23.957031 C 173.476562 31.058594 176.605469 37.6875 179.785156 44.363281 C 181.105469 47.132812 182.65625 49.691406 184.207031 52.328125 C 185.261719 54.132812 186.183594 56 187.308594 57.769531 C 187.636719 58.457031 188.0625 59.070312 188.589844 59.621094 C 189.027344 60.179688 189.070312 60.160156 188.710938 59.5625 C 188.351562 58.96875 188.390625 58.957031 188.773438 59.589844 L 189.6875 61.046875 C 192.78125 65.984375 197.609375 68.984375 203.578125 67.136719 C 208.761719 65.53125 212.921875 59.90625 211.632812 54.269531 Z M 211.65625 54.261719 " fill-opacity="1" fill-rule="nonzero"/></g></g></g></g></g></g></g><g clip-path="url(#3f25b90e21)"><g clip-path="url(#35859c4085)"><g clip-path="url(#fa1193d037)"><path fill="#ffffff" d="M 447.191406 471.78125 C 452.40625 467.957031 458.945312 468.261719 463.4375 473.132812 C 468 478.070312 466.234375 485.027344 462.097656 489.378906 C 461.054688 490.503906 460.011719 491.628906 458.933594 492.699219 L 458.140625 493.527344 C 459.445312 492.066406 458.929688 492.632812 456.589844 495.222656 C 454.84375 496.984375 453 498.625 451.207031 500.316406 C 447.597656 503.695312 443.945312 507.019531 440.242188 510.289062 C 432.855469 516.832031 425.195312 523.078125 417.527344 529.289062 C 409.710938 535.625 401.816406 541.867188 393.851562 548.015625 C 389.945312 551.027344 385.988281 553.984375 382.023438 556.914062 C 380.1875 558.269531 378.347656 559.621094 376.511719 560.96875 C 371.308594 564.742188 367.085938 566.472656 360.613281 564.5 C 354.992188 562.785156 352.300781 556.8125 352.378906 551.417969 C 352.484375 543.496094 359.808594 539.644531 365.347656 535.476562 C 369.304688 532.515625 373.238281 529.535156 377.183594 526.566406 C 385.066406 520.621094 392.878906 514.585938 400.613281 508.464844 C 416.09375 496.214844 431.242188 483.488281 447.175781 471.789062 Z M 420.917969 424.460938 C 410.570312 426.851562 400.300781 429.765625 390.175781 432.929688 C 385.433594 434.414062 380.640625 435.792969 375.933594 437.378906 C 370.9375 439.050781 365.054688 441.363281 361.375 445.234375 C 358.359375 448.417969 356.769531 452.15625 358.144531 456.589844 C 359.503906 460.910156 362.9375 463.34375 367.300781 464.15625 C 373.320312 465.246094 380.097656 463.199219 385.777344 461.332031 C 390.484375 459.792969 395.15625 458.125 399.84375 456.523438 C 409.1875 453.324219 418.46875 449.820312 427.53125 445.90625 C 432.710938 443.679688 435.101562 437.523438 433.5 432.328125 C 431.9375 427.28125 426.429688 423.191406 420.917969 424.460938 Z M 429.355469 363.660156 L 426.957031 362.730469 C 426.539062 362.566406 424.617188 361.601562 426.101562 362.453125 C 424.300781 361.3125 422.433594 360.289062 420.5 359.382812 C 417.324219 358.058594 414.113281 356.757812 410.910156 355.53125 C 404.789062 353.195312 398.613281 350.972656 392.5 348.625 C 380.117188 343.851562 367.855469 338.5625 355.863281 332.863281 C 353.0625 331.535156 350.28125 330.140625 347.496094 328.765625 C 345.253906 327.65625 342.785156 326.402344 340.25 326.265625 C 338.175781 326.15625 336.152344 326.4375 334.183594 327.113281 C 332.21875 327.785156 330.449219 328.804688 328.878906 330.167969 C 322.136719 335.929688 324.464844 346.839844 330.917969 351.699219 C 334.292969 354.238281 338.566406 355.847656 342.363281 357.6875 C 354.324219 363.507812 366.609375 368.546875 379.214844 372.800781 C 386.96875 375.457031 394.839844 377.714844 402.824219 379.566406 C 406.492188 380.394531 410.167969 380.953125 413.875 381.617188 C 414.53125 381.734375 415.222656 381.902344 415.882812 381.96875 C 416.714844 382.03125 417.546875 382.03125 418.378906 381.960938 C 420.144531 381.9375 420.347656 381.90625 418.976562 381.867188 C 421.027344 381.914062 423.070312 382.085938 425.097656 382.378906 C 436.152344 383.628906 439.542969 367.582031 429.355469 363.652344 Z M 470.695312 322.71875 C 469.988281 319.625 469.476562 316.585938 468.644531 313.523438 C 467.570312 309.597656 466.585938 305.675781 465.265625 301.816406 C 463.226562 295.816406 461.25 289.378906 458.207031 283.804688 C 454.710938 277.335938 447.824219 273.839844 440.601562 276.074219 C 434.359375 278.003906 428.308594 285.382812 430.402344 292.378906 C 432.527344 299.484375 435.65625 306.121094 438.839844 312.800781 C 440.164062 315.570312 441.710938 318.128906 443.261719 320.769531 C 444.316406 322.578125 445.238281 324.445312 446.367188 326.21875 C 446.695312 326.902344 447.121094 327.519531 447.648438 328.066406 C 448.085938 328.625 448.128906 328.605469 447.769531 328.011719 C 447.410156 327.414062 447.449219 327.402344 447.832031 328.039062 L 448.746094 329.496094 C 451.839844 334.4375 456.667969 337.441406 462.632812 335.59375 C 467.8125 333.992188 471.964844 328.371094 470.675781 322.730469 Z M 470.695312 322.71875 " fill-opacity="1" fill-rule="nonzero"/></g></g></g></svg>